<svg id="SvgjsSvg1006" width="812.6875" height="996.5" xmlns="http://www.w3.org/2000/svg" version="1.1" xmlns:xlink="http://www.w3.org/1999/xlink" xmlns:svgjs="http://svgjs.com/svgjs"><defs id="SvgjsDefs1007"><marker id="SvgjsMarker1022" markerWidth="16" markerHeight="12" refX="16" refY="6" viewBox="0 0 16 12" orient="auto" markerUnits="userSpaceOnUse" stroke-dasharray="0,0"><path id="SvgjsPath1023" d="M0,2 L14,6 L0,11 L0,2" fill="#323232" stroke="#323232" stroke-width="2"></path></marker><marker id="SvgjsMarker1032" markerWidth="16" markerHeight="12" refX="16" refY="6" viewBox="0 0 16 12" orient="auto" markerUnits="userSpaceOnUse" stroke-dasharray="0,0"><path id="SvgjsPath1033" d="M0,2 L14,6 L0,11 L0,2" fill="#323232" stroke="#323232" stroke-width="2"></path></marker><marker id="SvgjsMarker1104" markerWidth="16" markerHeight="12" refX="16" refY="6" viewBox="0 0 16 12" orient="auto" markerUnits="userSpaceOnUse" stroke-dasharray="0,0"><path id="SvgjsPath1105" d="M0,2 L14,6 L0,11 L0,2" fill="#323232" stroke="#323232" stroke-width="2"></path></marker><marker id="SvgjsMarker1160" markerWidth="16" markerHeight="12" refX="16" refY="6" viewBox="0 0 16 12" orient="auto" markerUnits="userSpaceOnUse" stroke-dasharray="0,0"><path id="SvgjsPath1161" d="M0,2 L14,6 L0,11 L0,2" fill="#323232" stroke="#323232" stroke-width="2"></path></marker><marker id="SvgjsMarker1164" markerWidth="16" markerHeight="12" refX="16" refY="6" viewBox="0 0 16 12" orient="auto" markerUnits="userSpaceOnUse" stroke-dasharray="0,0"><path id="SvgjsPath1165" d="M0,2 L14,6 L0,11 L0,2" fill="#323232" stroke="#323232" stroke-width="2"></path></marker><marker id="SvgjsMarker1168" markerWidth="16" markerHeight="12" refX="16" refY="6" viewBox="0 0 16 12" orient="auto" markerUnits="userSpaceOnUse" stroke-dasharray="0,0"><path id="SvgjsPath1169" d="M0,2 L14,6 L0,11 L0,2" fill="#323232" stroke="#323232" stroke-width="2"></path></marker><marker id="SvgjsMarker1172" markerWidth="16" markerHeight="12" refX="16" refY="6" viewBox="0 0 16 12" orient="auto" markerUnits="userSpaceOnUse" stroke-dasharray="0,0"><path id="SvgjsPath1173" d="M0,2 L14,6 L0,11 L0,2" fill="#323232" stroke="#323232" stroke-width="2"></path></marker><marker id="SvgjsMarker1176" markerWidth="16" markerHeight="12" refX="16" refY="6" viewBox="0 0 16 12" orient="auto" markerUnits="userSpaceOnUse" stroke-dasharray="0,0"><path id="SvgjsPath1177" d="M0,2 L14,6 L0,11 L0,2" fill="#323232" stroke="#323232" stroke-width="2"></path></marker><marker id="SvgjsMarker1186" markerWidth="16" markerHeight="12" refX="16" refY="6" viewBox="0 0 16 12" orient="auto" markerUnits="userSpaceOnUse" stroke-dasharray="0,0"><path id="SvgjsPath1187" d="M0,2 L14,6 L0,11 L0,2" fill="#323232" stroke="#323232" stroke-width="2"></path></marker><marker id="SvgjsMarker1198" markerWidth="16" markerHeight="12" refX="16" refY="6" viewBox="0 0 16 12" orient="auto" markerUnits="userSpaceOnUse" stroke-dasharray="0,0"><path id="SvgjsPath1199" d="M0,2 L14,6 L0,11 L0,2" fill="#323232" stroke="#323232" stroke-width="2"></path></marker><marker id="SvgjsMarker1202" markerWidth="16" markerHeight="12" refX="16" refY="6" viewBox="0 0 16 12" orient="auto" markerUnits="userSpaceOnUse" stroke-dasharray="0,0"><path id="SvgjsPath1203" d="M0,2 L14,6 L0,11 L0,2" fill="#323232" stroke="#323232" stroke-width="2"></path></marker><marker id="SvgjsMarker1206" markerWidth="16" markerHeight="12" refX="16" refY="6" viewBox="0 0 16 12" orient="auto" markerUnits="userSpaceOnUse" stroke-dasharray="0,0"><path id="SvgjsPath1207" d="M0,2 L14,6 L0,11 L0,2" fill="#323232" stroke="#323232" stroke-width="2"></path></marker><marker id="SvgjsMarker1210" markerWidth="16" markerHeight="12" refX="16" refY="6" viewBox="0 0 16 12" orient="auto" markerUnits="userSpaceOnUse" stroke-dasharray="0,0"><path id="SvgjsPath1211" d="M0,2 L14,6 L0,11 L0,2" fill="#323232" stroke="#323232" stroke-width="2"></path></marker><marker id="SvgjsMarker1214" markerWidth="16" markerHeight="12" refX="16" refY="6" viewBox="0 0 16 12" orient="auto" markerUnits="userSpaceOnUse" stroke-dasharray="0,0"><path id="SvgjsPath1215" d="M0,2 L14,6 L0,11 L0,2" fill="#323232" stroke="#323232" stroke-width="2"></path></marker><marker id="SvgjsMarker1218" markerWidth="16" markerHeight="12" refX="16" refY="6" viewBox="0 0 16 12" orient="auto" markerUnits="userSpaceOnUse" stroke-dasharray="0,0"><path id="SvgjsPath1219" d="M0,2 L14,6 L0,11 L0,2" fill="#323232" stroke="#323232" stroke-width="2"></path></marker><marker id="SvgjsMarker1222" markerWidth="16" markerHeight="12" refX="16" refY="6" viewBox="0 0 16 12" orient="auto" markerUnits="userSpaceOnUse" stroke-dasharray="0,0"><path id="SvgjsPath1223" d="M0,2 L14,6 L0,11 L0,2" fill="#323232" stroke="#323232" stroke-width="2"></path></marker><marker id="SvgjsMarker1226" markerWidth="16" markerHeight="12" refX="16" refY="6" viewBox="0 0 16 12" orient="auto" markerUnits="userSpaceOnUse" stroke-dasharray="0,0"><path id="SvgjsPath1227" d="M0,2 L14,6 L0,11 L0,2" fill="#323232" stroke="#323232" stroke-width="2"></path></marker><marker id="SvgjsMarker1230" markerWidth="16" markerHeight="12" refX="16" refY="6" viewBox="0 0 16 12" orient="auto" markerUnits="userSpaceOnUse" stroke-dasharray="0,0"><path id="SvgjsPath1231" d="M0,2 L14,6 L0,11 L0,2" fill="#323232" stroke="#323232" stroke-width="2"></path></marker><marker id="SvgjsMarker1234" markerWidth="16" markerHeight="12" refX="16" refY="6" viewBox="0 0 16 12" orient="auto" markerUnits="userSpaceOnUse" stroke-dasharray="0,0"><path id="SvgjsPath1235" d="M0,2 L14,6 L0,11 L0,2" fill="#323232" stroke="#323232" stroke-width="2"></path></marker><marker id="SvgjsMarker1238" markerWidth="16" markerHeight="12" refX="16" refY="6" viewBox="0 0 16 12" orient="auto" markerUnits="userSpaceOnUse" stroke-dasharray="0,0"><path id="SvgjsPath1239" d="M0,2 L14,6 L0,11 L0,2" fill="#323232" stroke="#323232" stroke-width="2"></path></marker><marker id="SvgjsMarker1242" markerWidth="16" markerHeight="12" refX="16" refY="6" viewBox="0 0 16 12" orient="auto" markerUnits="userSpaceOnUse" stroke-dasharray="0,0"><path id="SvgjsPath1243" d="M0,2 L14,6 L0,11 L0,2" fill="#323232" stroke="#323232" stroke-width="2"></path></marker><marker id="SvgjsMarker1254" markerWidth="16" markerHeight="12" refX="16" refY="6" viewBox="0 0 16 12" orient="auto" markerUnits="userSpaceOnUse" stroke-dasharray="0,0"><path id="SvgjsPath1255" d="M0,2 L14,6 L0,11 L0,2" fill="#323232" stroke="#323232" stroke-width="2"></path></marker><marker id="SvgjsMarker1274" markerWidth="16" markerHeight="12" refX="16" refY="6" viewBox="0 0 16 12" orient="auto" markerUnits="userSpaceOnUse" stroke-dasharray="0,0"><path id="SvgjsPath1275" d="M0,2 L14,6 L0,11 L0,2" fill="#323232" stroke="#323232" stroke-width="2"></path></marker><marker id="SvgjsMarker1278" markerWidth="16" markerHeight="12" refX="16" refY="6" viewBox="0 0 16 12" orient="auto" markerUnits="userSpaceOnUse" stroke-dasharray="0,0"><path id="SvgjsPath1279" d="M0,2 L14,6 L0,11 L0,2" fill="#323232" stroke="#323232" stroke-width="2"></path></marker><marker id="SvgjsMarker1282" markerWidth="16" markerHeight="12" refX="16" refY="6" viewBox="0 0 16 12" orient="auto" markerUnits="userSpaceOnUse" stroke-dasharray="0,0"><path id="SvgjsPath1283" d="M0,2 L14,6 L0,11 L0,2" fill="#323232" stroke="#323232" stroke-width="2"></path></marker><marker id="SvgjsMarker1286" markerWidth="16" markerHeight="12" refX="16" refY="6" viewBox="0 0 16 12" orient="auto" markerUnits="userSpaceOnUse" stroke-dasharray="0,0"><path id="SvgjsPath1287" d="M0,2 L14,6 L0,11 L0,2" fill="#323232" stroke="#323232" stroke-width="2"></path></marker><marker id="SvgjsMarker1290" markerWidth="16" markerHeight="12" refX="16" refY="6" viewBox="0 0 16 12" orient="auto" markerUnits="userSpaceOnUse" stroke-dasharray="0,0"><path id="SvgjsPath1291" d="M0,2 L14,6 L0,11 L0,2" fill="#323232" stroke="#323232" stroke-width="2"></path></marker><marker id="SvgjsMarker1294" markerWidth="16" markerHeight="12" refX="16" refY="6" viewBox="0 0 16 12" orient="auto" markerUnits="userSpaceOnUse" stroke-dasharray="0,0"><path id="SvgjsPath1295" d="M0,2 L14,6 L0,11 L0,2" fill="#323232" stroke="#323232" stroke-width="2"></path></marker><marker id="SvgjsMarker1318" markerWidth="16" markerHeight="12" refX="16" refY="6" viewBox="0 0 16 12" orient="auto" markerUnits="userSpaceOnUse" stroke-dasharray="0,0"><path id="SvgjsPath1319" d="M0,2 L14,6 L0,11 L0,2" fill="#323232" stroke="#323232" stroke-width="2"></path></marker><marker id="SvgjsMarker1330" markerWidth="16" markerHeight="12" refX="16" refY="6" viewBox="0 0 16 12" orient="auto" markerUnits="userSpaceOnUse" stroke-dasharray="0,0"><path id="SvgjsPath1331" d="M0,2 L14,6 L0,11 L0,2" fill="#323232" stroke="#323232" stroke-width="2"></path></marker><marker id="SvgjsMarker1334" markerWidth="16" markerHeight="12" refX="16" refY="6" viewBox="0 0 16 12" orient="auto" markerUnits="userSpaceOnUse" stroke-dasharray="0,0"><path id="SvgjsPath1335" d="M0,2 L14,6 L0,11 L0,2" fill="#323232" stroke="#323232" stroke-width="2"></path></marker><marker id="SvgjsMarker1338" markerWidth="16" markerHeight="12" refX="16" refY="6" viewBox="0 0 16 12" orient="auto" markerUnits="userSpaceOnUse" stroke-dasharray="0,0"><path id="SvgjsPath1339" d="M0,2 L14,6 L0,11 L0,2" fill="#323232" stroke="#323232" stroke-width="2"></path></marker><marker id="SvgjsMarker1414" markerWidth="16" markerHeight="12" refX="16" refY="6" viewBox="0 0 16 12" orient="auto" markerUnits="userSpaceOnUse" stroke-dasharray="0,0"><path id="SvgjsPath1415" d="M0,2 L14,6 L0,11 L0,2" fill="#323232" stroke="#323232" stroke-width="2"></path></marker></defs><g id="SvgjsG1008" transform="translate(346.1875,25)"><path id="SvgjsPath1009" d="M 0 0L 111 0L 111 33L 0 33Z" stroke="rgba(50,50,50,1)" stroke-width="2" fill-opacity="1" fill="#ffffff"></path><g id="SvgjsG1010"><text id="SvgjsText1011" font-family="微软雅黑" text-anchor="middle" font-size="13px" width="91px" fill="#323232" font-weight="400" align="middle" anchor="middle" family="微软雅黑" size="13px" weight="400" font-style="" opacity="1" y="6.55" transform="rotate(0)"><tspan id="SvgjsTspan1012" dy="16" x="55.5"><tspan id="SvgjsTspan1013" style="text-decoration:;">客户端开启</tspan></tspan></text></g></g><g id="SvgjsG1014" transform="translate(340.0625,88)"><path id="SvgjsPath1015" d="M 0 31L 61.625 0L 123.25 31L 61.625 62Z" stroke="rgba(50,50,50,1)" stroke-width="2" fill-opacity="1" fill="#ffffff"></path><g id="SvgjsG1016"><text id="SvgjsText1017" font-family="微软雅黑" text-anchor="middle" font-size="13px" width="104px" fill="#323232" font-weight="400" align="middle" anchor="middle" family="微软雅黑" size="13px" weight="400" font-style="" opacity="1" y="21.360000000000003" transform="rotate(0)"><tspan id="SvgjsTspan1018" dy="16" x="62"><tspan id="SvgjsTspan1019" style="text-decoration:;">成功连接服务器？</tspan></tspan></text></g></g><g id="SvgjsG1020"><path id="SvgjsPath1021" d="M401.6875 58L401.6875 73L401.6875 73L401.6875 88" stroke="#323232" stroke-width="2" fill="none" marker-end="url(#SvgjsMarker1022)"></path></g><g id="SvgjsG1024" transform="translate(340.0625,207)"><path id="SvgjsPath1025" d="M 0 26L 61.625 0L 123.25 26L 61.625 52Z" stroke="rgba(50,50,50,1)" stroke-width="2" fill-opacity="1" fill="#ffffff"></path><g id="SvgjsG1026"><text id="SvgjsText1027" font-family="微软雅黑" text-anchor="middle" font-size="13px" width="104px" fill="#323232" font-weight="400" align="middle" anchor="middle" family="微软雅黑" size="13px" weight="400" font-style="" opacity="1" y="16.31" transform="rotate(0)"><tspan id="SvgjsTspan1028" dy="16" x="62"><tspan id="SvgjsTspan1029" style="text-decoration:;">登录/注册</tspan></tspan></text></g></g><g id="SvgjsG1030"><path id="SvgjsPath1031" d="M401.6875 150L401.6875 178.5L401.6875 178.5L401.6875 207" stroke="#323232" stroke-width="2" fill="none" marker-end="url(#SvgjsMarker1032)"></path></g><g id="SvgjsG1034" transform="translate(537.203125,600.5)"><path id="SvgjsPath1035" d="M 0 0L 96.96875 0L 96.96875 44.25L 0 44.25Z" stroke="rgba(50,50,50,1)" stroke-width="2" fill-opacity="1" fill="#ffffff"></path><g id="SvgjsG1036"><text id="SvgjsText1037" font-family="微软雅黑" text-anchor="middle" font-size="13px" width="77px" fill="#323232" font-weight="400" align="middle" anchor="middle" family="微软雅黑" size="13px" weight="400" font-style="" opacity="1" y="4.175" transform="rotate(0)"><tspan id="SvgjsTspan1038" dy="16" x="48.5"><tspan id="SvgjsTspan1039" style="text-decoration:;">服务端加入</tspan></tspan><tspan id="SvgjsTspan1040" dy="16" x="48.5"><tspan id="SvgjsTspan1041" style="text-decoration:;">用户信息</tspan></tspan></text></g></g><g id="SvgjsG1042" transform="translate(700.625,598)"><path id="SvgjsPath1043" d="M 0 0L 52.9375 0L 52.9375 49.25L 0 49.25Z" stroke="rgba(50,50,50,1)" stroke-width="2" fill-opacity="1" fill="#ffffff"></path><g id="SvgjsG1044"><text id="SvgjsText1045" font-family="微软雅黑" text-anchor="middle" font-size="13px" width="33px" fill="#323232" font-weight="400" align="middle" anchor="middle" family="微软雅黑" size="13px" weight="400" font-style="" opacity="1" y="6.675" transform="rotate(0)"><tspan id="SvgjsTspan1046" dy="16" x="26.5"><tspan id="SvgjsTspan1047" style="text-decoration:;">注册</tspan></tspan><tspan id="SvgjsTspan1048" dy="16" x="26.5"><tspan id="SvgjsTspan1049" style="text-decoration:;">成功</tspan></tspan></text></g></g><g id="SvgjsG1050" transform="translate(181.1875,451.25)"><path id="SvgjsPath1051" d="M 0 0L 120 0L 120 40L 0 40Z" stroke="none" fill="none"></path><g id="SvgjsG1052"><text id="SvgjsText1053" font-family="微软雅黑" text-anchor="middle" font-size="13px" width="120px" fill="#323232" font-weight="400" align="middle" anchor="middle" family="微软雅黑" size="13px" weight="400" font-style="" opacity="1" y="10.05" transform="rotate(0)"><tspan id="SvgjsTspan1054" dy="16" x="60"><tspan id="SvgjsTspan1055" style="text-decoration:;">Y</tspan></tspan></text></g></g><g id="SvgjsG1056" transform="translate(544.21875,356.875)"><path id="SvgjsPath1057" d="M 0 0L 120 0L 120 40L 0 40Z" stroke="none" fill="none"></path><g id="SvgjsG1058"><text id="SvgjsText1059" font-family="微软雅黑" text-anchor="middle" font-size="13px" width="120px" fill="#323232" font-weight="400" align="middle" anchor="middle" family="微软雅黑" size="13px" weight="400" font-style="" opacity="1" y="10.05" transform="rotate(0)"><tspan id="SvgjsTspan1060" dy="16" x="60"><tspan id="SvgjsTspan1061" style="text-decoration:;">N</tspan></tspan></text></g></g><g id="SvgjsG1062" transform="translate(181.1875,358)"><path id="SvgjsPath1063" d="M 0 0L 120 0L 120 40L 0 40Z" stroke="none" fill="none"></path><g id="SvgjsG1064"><text id="SvgjsText1065" font-family="微软雅黑" text-anchor="middle" font-size="13px" width="120px" fill="#323232" font-weight="400" align="middle" anchor="middle" family="微软雅黑" size="13px" weight="400" font-style="" opacity="1" y="10.05" transform="rotate(0)"><tspan id="SvgjsTspan1066" dy="16" x="60"><tspan id="SvgjsTspan1067" style="text-decoration:;">Y</tspan></tspan></text></g></g><g id="SvgjsG1068" transform="translate(87.1875,302.5)"><path id="SvgjsPath1069" d="M 0 0L 120 0L 120 40L 0 40Z" stroke="none" fill="none"></path><g id="SvgjsG1070"><text id="SvgjsText1071" font-family="微软雅黑" text-anchor="middle" font-size="13px" width="120px" fill="#323232" font-weight="400" align="middle" anchor="middle" family="微软雅黑" size="13px" weight="400" font-style="" opacity="1" y="10.05" transform="rotate(0)"><tspan id="SvgjsTspan1072" dy="16" x="60"><tspan id="SvgjsTspan1073" style="text-decoration:;">N</tspan></tspan></text></g></g><g id="SvgjsG1074" transform="translate(165.0625,313)"><path id="SvgjsPath1075" d="M 0 26L 61.625 0L 123.25 26L 61.625 52Z" stroke="rgba(50,50,50,1)" stroke-width="2" fill-opacity="1" fill="#ffffff"></path><g id="SvgjsG1076"><text id="SvgjsText1077" font-family="微软雅黑" text-anchor="middle" font-size="13px" width="104px" fill="#323232" font-weight="400" align="middle" anchor="middle" family="微软雅黑" size="13px" weight="400" font-style="" opacity="1" y="16.31" transform="rotate(0)"><tspan id="SvgjsTspan1078" dy="16" x="62"><tspan id="SvgjsTspan1079" style="text-decoration:;">用户名存在？</tspan></tspan></text></g></g><g id="SvgjsG1080" transform="translate(185.21875,216.5)"><path id="SvgjsPath1081" d="M 0 0L 82.9375 0L 82.9375 33L 0 33Z" stroke="rgba(50,50,50,1)" stroke-width="2" fill-opacity="1" fill="#ffffff"></path><g id="SvgjsG1082"><text id="SvgjsText1083" font-family="微软雅黑" text-anchor="middle" font-size="13px" width="63px" fill="#323232" font-weight="400" align="middle" anchor="middle" family="微软雅黑" size="13px" weight="400" font-style="" opacity="1" y="-1.45" transform="rotate(0)"><tspan id="SvgjsTspan1084" dy="16" x="41.5"><tspan id="SvgjsTspan1085" style="text-decoration:;">输入用户</tspan></tspan><tspan id="SvgjsTspan1086" dy="16" x="41.5"><tspan id="SvgjsTspan1087" style="text-decoration:;">名和密码</tspan></tspan></text></g></g><g id="SvgjsG1088" transform="translate(185.21875,497.5)"><path id="SvgjsPath1089" d="M 0 0L 82.9375 0L 82.9375 38.25L 0 38.25Z" stroke="rgba(50,50,50,1)" stroke-width="2" fill-opacity="1" fill="#ffffff"></path><g id="SvgjsG1090"><text id="SvgjsText1091" font-family="微软雅黑" text-anchor="middle" font-size="13px" width="63px" fill="#323232" font-weight="400" align="middle" anchor="middle" family="微软雅黑" size="13px" weight="400" font-style="" opacity="1" y="9.175" transform="rotate(0)"><tspan id="SvgjsTspan1092" dy="16" x="41.5"><tspan id="SvgjsTspan1093" style="text-decoration:;">登录成功</tspan></tspan></text></g></g><g id="SvgjsG1094" transform="translate(544.21875,216.5)"><path id="SvgjsPath1095" d="M 0 0L 82.9375 0L 82.9375 33L 0 33Z" stroke="rgba(50,50,50,1)" stroke-width="2" fill-opacity="1" fill="#ffffff"></path><g id="SvgjsG1096"><text id="SvgjsText1097" font-family="微软雅黑" text-anchor="middle" font-size="13px" width="63px" fill="#323232" font-weight="400" align="middle" anchor="middle" family="微软雅黑" size="13px" weight="400" font-style="" opacity="1" y="-1.45" transform="rotate(0)"><tspan id="SvgjsTspan1098" dy="16" x="41.5"><tspan id="SvgjsTspan1099" style="text-decoration:;">输入用户</tspan></tspan><tspan id="SvgjsTspan1100" dy="16" x="41.5"><tspan id="SvgjsTspan1101" style="text-decoration:;">名和密码</tspan></tspan></text></g></g><g id="SvgjsG1102"><path id="SvgjsPath1103" d="M340.0625 233L304.109375 233L304.109375 233L268.15625 233" stroke="#323232" stroke-width="2" fill="none" marker-end="url(#SvgjsMarker1104)"></path></g><g id="SvgjsG1106" transform="translate(524.0625,309)"><path id="SvgjsPath1107" d="M 0 26L 61.625 0L 123.25 26L 61.625 52Z" stroke="rgba(50,50,50,1)" stroke-width="2" fill-opacity="1" fill="#ffffff"></path><g id="SvgjsG1108"><text id="SvgjsText1109" font-family="微软雅黑" text-anchor="middle" font-size="13px" width="104px" fill="#323232" font-weight="400" align="middle" anchor="middle" family="微软雅黑" size="13px" weight="400" font-style="" opacity="1" y="16.31" transform="rotate(0)"><tspan id="SvgjsTspan1110" dy="16" x="62"><tspan id="SvgjsTspan1111" style="text-decoration:;">用户名存在？</tspan></tspan></text></g></g><g id="SvgjsG1112" transform="translate(165.0625,405.5)"><path id="SvgjsPath1113" d="M 0 26L 61.625 0L 123.25 26L 61.625 52Z" stroke="rgba(50,50,50,1)" stroke-width="2" fill-opacity="1" fill="#ffffff"></path><g id="SvgjsG1114"><text id="SvgjsText1115" font-family="微软雅黑" text-anchor="middle" font-size="13px" width="104px" fill="#323232" font-weight="400" align="middle" anchor="middle" family="微软雅黑" size="13px" weight="400" font-style="" opacity="1" y="16.31" transform="rotate(0)"><tspan id="SvgjsTspan1116" dy="16" x="62"><tspan id="SvgjsTspan1117" style="text-decoration:;">密码正确？</tspan></tspan></text></g></g><g id="SvgjsG1118" transform="translate(524.0625,501)"><path id="SvgjsPath1119" d="M 0 26L 61.625 0L 123.25 26L 61.625 52Z" stroke="rgba(50,50,50,1)" stroke-width="2" fill-opacity="1" fill="#ffffff"></path><g id="SvgjsG1120"><text id="SvgjsText1121" font-family="微软雅黑" text-anchor="middle" font-size="13px" width="104px" fill="#323232" font-weight="400" align="middle" anchor="middle" family="微软雅黑" size="13px" weight="400" font-style="" opacity="1" y="16.31" transform="rotate(0)"><tspan id="SvgjsTspan1122" dy="16" x="62"><tspan id="SvgjsTspan1123" style="text-decoration:;">密码合法？</tspan></tspan></text></g></g><g id="SvgjsG1124" transform="translate(524.0625,398)"><path id="SvgjsPath1125" d="M 0 26L 61.625 0L 123.25 26L 61.625 52Z" stroke="rgba(50,50,50,1)" stroke-width="2" fill-opacity="1" fill="#ffffff"></path><g id="SvgjsG1126"><text id="SvgjsText1127" font-family="微软雅黑" text-anchor="middle" font-size="13px" width="104px" fill="#323232" font-weight="400" align="middle" anchor="middle" family="微软雅黑" size="13px" weight="400" font-style="" opacity="1" y="16.31" transform="rotate(0)"><tspan id="SvgjsTspan1128" dy="16" x="62"><tspan id="SvgjsTspan1129" style="text-decoration:;">用户名合法？</tspan></tspan></text></g></g><g id="SvgjsG1130" transform="translate(185.21875,570.5)"><path id="SvgjsPath1131" d="M 0 0L 82.9375 0L 82.9375 38.25L 0 38.25Z" stroke="rgba(50,50,50,1)" stroke-width="2" fill-opacity="1" fill="#ffffff"></path><g id="SvgjsG1132"><text id="SvgjsText1133" font-family="微软雅黑" text-anchor="middle" font-size="13px" width="63px" fill="#323232" font-weight="400" align="middle" anchor="middle" family="微软雅黑" size="13px" weight="400" font-style="" opacity="1" y="1.175" transform="rotate(0)"><tspan id="SvgjsTspan1134" dy="16" x="41.5"><tspan id="SvgjsTspan1135" style="text-decoration:;">用户执行</tspan></tspan><tspan id="SvgjsTspan1136" dy="16" x="41.5"><tspan id="SvgjsTspan1137" style="text-decoration:;">活动</tspan></tspan></text></g></g><g id="SvgjsG1138" transform="translate(25,681)"><path id="SvgjsPath1139" d="M 0 32.875L 66.53125 0L 133.0625 32.875L 66.53125 65.75Z" stroke="rgba(50,50,50,1)" stroke-width="2" fill-opacity="1" fill="#ffffff"></path><g id="SvgjsG1140"><text id="SvgjsText1141" font-family="微软雅黑" text-anchor="middle" font-size="13px" width="114px" fill="#323232" font-weight="400" align="middle" anchor="middle" family="微软雅黑" size="13px" weight="400" font-style="" opacity="1" y="23.25375" transform="rotate(0)"><tspan id="SvgjsTspan1142" dy="16" x="67"><tspan id="SvgjsTspan1143" style="text-decoration:;">服务端意向关闭？</tspan></tspan></text></g></g><g id="SvgjsG1144" transform="translate(145.03125,817.5)"><path id="SvgjsPath1145" d="M 0 0L 115 0L 115 50.25L 0 50.25Z" stroke="rgba(50,50,50,1)" stroke-width="2" fill-opacity="1" fill="#ffffff"></path><g id="SvgjsG1146"><text id="SvgjsText1147" font-family="微软雅黑" text-anchor="middle" font-size="13px" width="95px" fill="#323232" font-weight="400" align="middle" anchor="middle" family="微软雅黑" size="13px" weight="400" font-style="" opacity="1" y="7.175" transform="rotate(0)"><tspan id="SvgjsTspan1148" dy="16" x="57.5"><tspan id="SvgjsTspan1149" style="text-decoration:;">用户执行活动完</tspan></tspan><tspan id="SvgjsTspan1150" dy="16" x="57.5"><tspan id="SvgjsTspan1151" style="text-decoration:;">毕主动退出连接</tspan></tspan></text></g></g><g id="SvgjsG1152" transform="translate(229.1875,927.5)"><path id="SvgjsPath1153" d="M 0 0L 101 0L 101 44.25L 0 44.25Z" stroke="rgba(50,50,50,1)" stroke-width="2" fill-opacity="1" fill="#ffffff"></path><g id="SvgjsG1154"><text id="SvgjsText1155" font-family="微软雅黑" text-anchor="middle" font-size="13px" width="81px" fill="#323232" font-weight="400" align="middle" anchor="middle" family="微软雅黑" size="13px" weight="400" font-style="" opacity="1" y="12.175" transform="rotate(0)"><tspan id="SvgjsTspan1156" dy="16" x="50.5"><tspan id="SvgjsTspan1157" style="text-decoration:;">客户端关闭</tspan></tspan></text></g></g><g id="SvgjsG1158"><path id="SvgjsPath1159" d="M226.6875 249.5L226.6875 281.25L226.6875 281.25L226.6875 313" stroke="#323232" stroke-width="2" fill="none" marker-end="url(#SvgjsMarker1160)"></path></g><g id="SvgjsG1162"><path id="SvgjsPath1163" d="M226.6875 365L226.6875 385.25L226.6875 385.25L226.6875 405.5" stroke="#323232" stroke-width="2" fill="none" marker-end="url(#SvgjsMarker1164)"></path></g><g id="SvgjsG1166"><path id="SvgjsPath1167" d="M226.6875 457.5L226.6875 477.5L226.6875 477.5L226.6875 497.5" stroke="#323232" stroke-width="2" fill="none" marker-end="url(#SvgjsMarker1168)"></path></g><g id="SvgjsG1170"><path id="SvgjsPath1171" d="M226.6875 535.75L226.6875 553.125L226.6875 553.125L226.6875 570.5" stroke="#323232" stroke-width="2" fill="none" marker-end="url(#SvgjsMarker1172)"></path></g><g id="SvgjsG1174"><path id="SvgjsPath1175" d="M226.6875 608.75L226.6875 644.875L91.53125 644.875L91.53125 681" stroke="#323232" stroke-width="2" fill="none" marker-end="url(#SvgjsMarker1176)"></path></g><g id="SvgjsG1178" transform="translate(298.15625,681)"><path id="SvgjsPath1179" d="M 0 32.875L 66.53125 0L 133.0625 32.875L 66.53125 65.75Z" stroke="rgba(50,50,50,1)" stroke-width="2" fill-opacity="1" fill="#ffffff"></path><g id="SvgjsG1180"><text id="SvgjsText1181" font-family="微软雅黑" text-anchor="middle" font-size="13px" width="114px" fill="#323232" font-weight="400" align="middle" anchor="middle" family="微软雅黑" size="13px" weight="400" font-style="" opacity="1" y="23.25375" transform="rotate(0)"><tspan id="SvgjsTspan1182" dy="16" x="67"><tspan id="SvgjsTspan1183" style="text-decoration:;">账号异地登录？</tspan></tspan></text></g></g><g id="SvgjsG1184"><path id="SvgjsPath1185" d="M226.6875 608.75L226.6875 644.875L364.6875 644.875L364.6875 681" stroke="#323232" stroke-width="2" fill="none" marker-end="url(#SvgjsMarker1186)"></path></g><g id="SvgjsG1188" transform="translate(314.1875,823.5)"><path id="SvgjsPath1189" d="M 0 0L 101 0L 101 44.25L 0 44.25Z" stroke="rgba(50,50,50,1)" stroke-width="2" fill-opacity="1" fill="#ffffff"></path><g id="SvgjsG1190"><text id="SvgjsText1191" font-family="微软雅黑" text-anchor="middle" font-size="13px" width="81px" fill="#323232" font-weight="400" align="middle" anchor="middle" family="微软雅黑" size="13px" weight="400" font-style="" opacity="1" y="4.175" transform="rotate(0)"><tspan id="SvgjsTspan1192" dy="16" x="50.5"><tspan id="SvgjsTspan1193" style="text-decoration:;">用户被迫关闭</tspan></tspan><tspan id="SvgjsTspan1194" dy="16" x="50.5"><tspan id="SvgjsTspan1195" style="text-decoration:;">连接</tspan></tspan></text></g></g><g id="SvgjsG1196"><path id="SvgjsPath1197" d="M364.6875 746.75L364.6875 785.125L364.6875 785.125L364.6875 823.5" stroke="#323232" stroke-width="2" fill="none" marker-end="url(#SvgjsMarker1198)"></path></g><g id="SvgjsG1200"><path id="SvgjsPath1201" d="M91.53125 746.75L91.53125 785.125L364.6875 785.125L364.6875 823.5" stroke="#323232" stroke-width="2" fill="none" marker-end="url(#SvgjsMarker1202)"></path></g><g id="SvgjsG1204"><path id="SvgjsPath1205" d="M158.0625 713.875L202.53125 713.875L202.53125 817.5" stroke="#323232" stroke-width="2" fill="none" marker-end="url(#SvgjsMarker1206)"></path></g><g id="SvgjsG1208"><path id="SvgjsPath1209" d="M298.15625 713.875L202.53125 713.875L202.53125 817.5" stroke="#323232" stroke-width="2" fill="none" marker-end="url(#SvgjsMarker1210)"></path></g><g id="SvgjsG1212"><path id="SvgjsPath1213" d="M202.53125 867.75L202.53125 897.625L279.6875 897.625L279.6875 927.5" stroke="#323232" stroke-width="2" fill="none" marker-end="url(#SvgjsMarker1214)"></path></g><g id="SvgjsG1216"><path id="SvgjsPath1217" d="M364.6875 867.75L364.6875 897.625L279.6875 897.625L279.6875 927.5" stroke="#323232" stroke-width="2" fill="none" marker-end="url(#SvgjsMarker1218)"></path></g><g id="SvgjsG1220"><path id="SvgjsPath1221" d="M463.3125 233L503.765625 233L503.765625 233L544.21875 233" stroke="#323232" stroke-width="2" fill="none" marker-end="url(#SvgjsMarker1222)"></path></g><g id="SvgjsG1224"><path id="SvgjsPath1225" d="M585.6875 249.5L585.6875 279.25L585.6875 279.25L585.6875 309" stroke="#323232" stroke-width="2" fill="none" marker-end="url(#SvgjsMarker1226)"></path></g><g id="SvgjsG1228"><path id="SvgjsPath1229" d="M585.6875 361L585.6875 379.5L585.6875 379.5L585.6875 398" stroke="#323232" stroke-width="2" fill="none" marker-end="url(#SvgjsMarker1230)"></path></g><g id="SvgjsG1232"><path id="SvgjsPath1233" d="M585.6875 450L585.6875 475.5L585.6875 475.5L585.6875 501" stroke="#323232" stroke-width="2" fill="none" marker-end="url(#SvgjsMarker1234)"></path></g><g id="SvgjsG1236"><path id="SvgjsPath1237" d="M585.6875 553L585.6875 576.75L585.6875 576.75L585.6875 600.5" stroke="#323232" stroke-width="2" fill="none" marker-end="url(#SvgjsMarker1238)"></path></g><g id="SvgjsG1240"><path id="SvgjsPath1241" d="M647.3125 335L671.71875 335L671.71875 335L696.125 335" stroke="#323232" stroke-width="2" fill="none" marker-end="url(#SvgjsMarker1242)"></path></g><g id="SvgjsG1244" transform="translate(696.125,313.125)"><path id="SvgjsPath1245" d="M 0 0L 61.9375 0L 61.9375 43.75L 0 43.75Z" stroke="rgba(50,50,50,1)" stroke-width="2" fill-opacity="1" fill="#ffffff"></path><g id="SvgjsG1246"><text id="SvgjsText1247" font-family="微软雅黑" text-anchor="middle" font-size="13px" width="42px" fill="#323232" font-weight="400" align="middle" anchor="middle" family="微软雅黑" size="13px" weight="400" font-style="" opacity="1" y="3.925" transform="rotate(0)"><tspan id="SvgjsTspan1248" dy="16" x="31"><tspan id="SvgjsTspan1249" style="text-decoration:;">用户名</tspan></tspan><tspan id="SvgjsTspan1250" dy="16" x="31"><tspan id="SvgjsTspan1251" style="text-decoration:;">已存在</tspan></tspan></text></g></g><g id="SvgjsG1252"><path id="SvgjsPath1253" d="M758.0625 335L788.0625 335L788.0625 177L401.6875 177L401.6875 207" stroke="#323232" stroke-width="2" fill="none" marker-end="url(#SvgjsMarker1254)"></path></g><g id="SvgjsG1256" transform="translate(696.125,402.125)"><path id="SvgjsPath1257" d="M 0 0L 61.9375 0L 61.9375 43.75L 0 43.75Z" stroke="rgba(50,50,50,1)" stroke-width="2" fill-opacity="1" fill="#ffffff"></path><g id="SvgjsG1258"><text id="SvgjsText1259" font-family="微软雅黑" text-anchor="middle" font-size="13px" width="42px" fill="#323232" font-weight="400" align="middle" anchor="middle" family="微软雅黑" size="13px" weight="400" font-style="" opacity="1" y="3.925" transform="rotate(0)"><tspan id="SvgjsTspan1260" dy="16" x="31"><tspan id="SvgjsTspan1261" style="text-decoration:;">非法用</tspan></tspan><tspan id="SvgjsTspan1262" dy="16" x="31"><tspan id="SvgjsTspan1263" style="text-decoration:;">户名</tspan></tspan></text></g></g><g id="SvgjsG1264" transform="translate(696.125,505.125)"><path id="SvgjsPath1265" d="M 0 0L 61.9375 0L 61.9375 43.75L 0 43.75Z" stroke="rgba(50,50,50,1)" stroke-width="2" fill-opacity="1" fill="#ffffff"></path><g id="SvgjsG1266"><text id="SvgjsText1267" font-family="微软雅黑" text-anchor="middle" font-size="13px" width="42px" fill="#323232" font-weight="400" align="middle" anchor="middle" family="微软雅黑" size="13px" weight="400" font-style="" opacity="1" y="3.925" transform="rotate(0)"><tspan id="SvgjsTspan1268" dy="16" x="31"><tspan id="SvgjsTspan1269" style="text-decoration:;">非法密</tspan></tspan><tspan id="SvgjsTspan1270" dy="16" x="31"><tspan id="SvgjsTspan1271" style="text-decoration:;">码</tspan></tspan></text></g></g><g id="SvgjsG1272"><path id="SvgjsPath1273" d="M647.3125 424L671.71875 424L671.71875 424L696.125 424" stroke="#323232" stroke-width="2" fill="none" marker-end="url(#SvgjsMarker1274)"></path></g><g id="SvgjsG1276"><path id="SvgjsPath1277" d="M758.0625 424L788.0625 424L788.0625 177L401.6875 177L401.6875 207" stroke="#323232" stroke-width="2" fill="none" marker-end="url(#SvgjsMarker1278)"></path></g><g id="SvgjsG1280"><path id="SvgjsPath1281" d="M647.3125 527L671.71875 527L671.71875 527L696.125 527" stroke="#323232" stroke-width="2" fill="none" marker-end="url(#SvgjsMarker1282)"></path></g><g id="SvgjsG1284"><path id="SvgjsPath1285" d="M758.0625 527L788.0625 527L788.0625 177L401.6875 177L401.6875 207" stroke="#323232" stroke-width="2" fill="none" marker-end="url(#SvgjsMarker1286)"></path></g><g id="SvgjsG1288"><path id="SvgjsPath1289" d="M753.5625 622.625L788.5625 622.625L788.5625 177L401.6875 177L401.6875 207" stroke="#323232" stroke-width="2" fill="none" marker-end="url(#SvgjsMarker1290)"></path></g><g id="SvgjsG1292"><path id="SvgjsPath1293" d="M634.171875 622.625L667.3984375 622.625L667.3984375 622.625L700.625 622.625" stroke="#323232" stroke-width="2" fill="none" marker-end="url(#SvgjsMarker1294)"></path></g><g id="SvgjsG1296" transform="translate(439.0625,200)"><path id="SvgjsPath1297" d="M 0 0L 120 0L 120 40L 0 40Z" stroke="none" fill="none"></path><g id="SvgjsG1298"><text id="SvgjsText1299" font-family="微软雅黑" text-anchor="middle" font-size="13px" width="120px" fill="#323232" font-weight="400" align="middle" anchor="middle" family="微软雅黑" size="13px" weight="400" font-style="" opacity="1" y="10.05" transform="rotate(0)"><tspan id="SvgjsTspan1300" dy="16" x="60"><tspan id="SvgjsTspan1301" style="text-decoration:;">注册</tspan></tspan></text></g></g><g id="SvgjsG1302" transform="translate(250.0625,200)"><path id="SvgjsPath1303" d="M 0 0L 120 0L 120 40L 0 40Z" stroke="none" fill="none"></path><g id="SvgjsG1304"><text id="SvgjsText1305" font-family="微软雅黑" text-anchor="middle" font-size="13px" width="120px" fill="#323232" font-weight="400" align="middle" anchor="middle" family="微软雅黑" size="13px" weight="400" font-style="" opacity="1" y="10.05" transform="rotate(0)"><tspan id="SvgjsTspan1306" dy="16" x="60"><tspan id="SvgjsTspan1307" style="text-decoration:;">登录</tspan></tspan></text></g></g><g id="SvgjsG1308" transform="translate(55.15625,317.25)"><path id="SvgjsPath1309" d="M 0 0L 61.9375 0L 61.9375 43.75L 0 43.75Z" stroke="rgba(50,50,50,1)" stroke-width="2" fill-opacity="1" fill="#ffffff"></path><g id="SvgjsG1310"><text id="SvgjsText1311" font-family="微软雅黑" text-anchor="middle" font-size="13px" width="42px" fill="#323232" font-weight="400" align="middle" anchor="middle" family="微软雅黑" size="13px" weight="400" font-style="" opacity="1" y="3.925" transform="rotate(0)"><tspan id="SvgjsTspan1312" dy="16" x="31"><tspan id="SvgjsTspan1313" style="text-decoration:;">用户名</tspan></tspan><tspan id="SvgjsTspan1314" dy="16" x="31"><tspan id="SvgjsTspan1315" style="text-decoration:;">不存在</tspan></tspan></text></g></g><g id="SvgjsG1316"><path id="SvgjsPath1317" d="M165.0625 339L141.078125 339L141.078125 339.125L117.09375 339.125" stroke="#323232" stroke-width="2" fill="none" marker-end="url(#SvgjsMarker1318)"></path></g><g id="SvgjsG1320" transform="translate(61.15625,411.75)"><path id="SvgjsPath1321" d="M 0 0L 55.96875 0L 55.96875 39.5L 0 39.5Z" stroke="rgba(50,50,50,1)" stroke-width="2" fill-opacity="1" fill="#ffffff"></path><g id="SvgjsG1322"><text id="SvgjsText1323" font-family="微软雅黑" text-anchor="middle" font-size="13px" width="36px" fill="#323232" font-weight="400" align="middle" anchor="middle" family="微软雅黑" size="13px" weight="400" font-style="" opacity="1" y="1.8" transform="rotate(0)"><tspan id="SvgjsTspan1324" dy="16" x="28"><tspan id="SvgjsTspan1325" style="text-decoration:;">密码</tspan></tspan><tspan id="SvgjsTspan1326" dy="16" x="28"><tspan id="SvgjsTspan1327" style="text-decoration:;">错误</tspan></tspan></text></g></g><g id="SvgjsG1328"><path id="SvgjsPath1329" d="M165.0625 431.5L141.09375 431.5L141.09375 431.5L117.125 431.5" stroke="#323232" stroke-width="2" fill="none" marker-end="url(#SvgjsMarker1330)"></path></g><g id="SvgjsG1332"><path id="SvgjsPath1333" d="M55.15625 339.125L25.15625 339.125L25.15625 177L401.6875 177L401.6875 207" stroke="#323232" stroke-width="2" fill="none" marker-end="url(#SvgjsMarker1334)"></path></g><g id="SvgjsG1336"><path id="SvgjsPath1337" d="M61.15625 431.5L25.15625 431.5L25.15625 177L401.6875 177L401.6875 207" stroke="#323232" stroke-width="2" fill="none" marker-end="url(#SvgjsMarker1338)"></path></g><g id="SvgjsG1340" transform="translate(85.125,394.75)"><path id="SvgjsPath1341" d="M 0 0L 120 0L 120 40L 0 40Z" stroke="none" fill="none"></path><g id="SvgjsG1342"><text id="SvgjsText1343" font-family="微软雅黑" text-anchor="middle" font-size="13px" width="120px" fill="#323232" font-weight="400" align="middle" anchor="middle" family="微软雅黑" size="13px" weight="400" font-style="" opacity="1" y="10.05" transform="rotate(0)"><tspan id="SvgjsTspan1344" dy="16" x="60"><tspan id="SvgjsTspan1345" style="text-decoration:;">N</tspan></tspan></text></g></g><g id="SvgjsG1346" transform="translate(314.1875,741)"><path id="SvgjsPath1347" d="M 0 0L 120 0L 120 40L 0 40Z" stroke="none" fill="none"></path><g id="SvgjsG1348"><text id="SvgjsText1349" font-family="微软雅黑" text-anchor="middle" font-size="13px" width="120px" fill="#323232" font-weight="400" align="middle" anchor="middle" family="微软雅黑" size="13px" weight="400" font-style="" opacity="1" y="10.05" transform="rotate(0)"><tspan id="SvgjsTspan1350" dy="16" x="60"><tspan id="SvgjsTspan1351" style="text-decoration:;">Y</tspan></tspan></text></g></g><g id="SvgjsG1352" transform="translate(109.1875,684.75)"><path id="SvgjsPath1353" d="M 0 0L 120 0L 120 40L 0 40Z" stroke="none" fill="none"></path><g id="SvgjsG1354"><text id="SvgjsText1355" font-family="微软雅黑" text-anchor="middle" font-size="13px" width="120px" fill="#323232" font-weight="400" align="middle" anchor="middle" family="微软雅黑" size="13px" weight="400" font-style="" opacity="1" y="10.05" transform="rotate(0)"><tspan id="SvgjsTspan1356" dy="16" x="60"><tspan id="SvgjsTspan1357" style="text-decoration:;">N</tspan></tspan></text></g></g><g id="SvgjsG1358" transform="translate(40.1875,741)"><path id="SvgjsPath1359" d="M 0 0L 120 0L 120 40L 0 40Z" stroke="none" fill="none"></path><g id="SvgjsG1360"><text id="SvgjsText1361" font-family="微软雅黑" text-anchor="middle" font-size="13px" width="120px" fill="#323232" font-weight="400" align="middle" anchor="middle" family="微软雅黑" size="13px" weight="400" font-style="" opacity="1" y="10.05" transform="rotate(0)"><tspan id="SvgjsTspan1362" dy="16" x="60"><tspan id="SvgjsTspan1363" style="text-decoration:;">Y</tspan></tspan></text></g></g><g id="SvgjsG1364" transform="translate(544.21875,553)"><path id="SvgjsPath1365" d="M 0 0L 120 0L 120 40L 0 40Z" stroke="none" fill="none"></path><g id="SvgjsG1366"><text id="SvgjsText1367" font-family="微软雅黑" text-anchor="middle" font-size="13px" width="120px" fill="#323232" font-weight="400" align="middle" anchor="middle" family="微软雅黑" size="13px" weight="400" font-style="" opacity="1" y="10.05" transform="rotate(0)"><tspan id="SvgjsTspan1368" dy="16" x="60"><tspan id="SvgjsTspan1369" style="text-decoration:;">Y</tspan></tspan></text></g></g><g id="SvgjsG1370" transform="translate(219.6875,684.75)"><path id="SvgjsPath1371" d="M 0 0L 120 0L 120 40L 0 40Z" stroke="none" fill="none"></path><g id="SvgjsG1372"><text id="SvgjsText1373" font-family="微软雅黑" text-anchor="middle" font-size="13px" width="120px" fill="#323232" font-weight="400" align="middle" anchor="middle" family="微软雅黑" size="13px" weight="400" font-style="" opacity="1" y="10.05" transform="rotate(0)"><tspan id="SvgjsTspan1374" dy="16" x="60"><tspan id="SvgjsTspan1375" style="text-decoration:;">N</tspan></tspan></text></g></g><g id="SvgjsG1376" transform="translate(602.21875,491.25)"><path id="SvgjsPath1377" d="M 0 0L 120 0L 120 40L 0 40Z" stroke="none" fill="none"></path><g id="SvgjsG1378"><text id="SvgjsText1379" font-family="微软雅黑" text-anchor="middle" font-size="13px" width="120px" fill="#323232" font-weight="400" align="middle" anchor="middle" family="微软雅黑" size="13px" weight="400" font-style="" opacity="1" y="10.05" transform="rotate(0)"><tspan id="SvgjsTspan1380" dy="16" x="60"><tspan id="SvgjsTspan1381" style="text-decoration:;">N</tspan></tspan></text></g></g><g id="SvgjsG1382" transform="translate(602.21875,389.875)"><path id="SvgjsPath1383" d="M 0 0L 120 0L 120 40L 0 40Z" stroke="none" fill="none"></path><g id="SvgjsG1384"><text id="SvgjsText1385" font-family="微软雅黑" text-anchor="middle" font-size="13px" width="120px" fill="#323232" font-weight="400" align="middle" anchor="middle" family="微软雅黑" size="13px" weight="400" font-style="" opacity="1" y="10.05" transform="rotate(0)"><tspan id="SvgjsTspan1386" dy="16" x="60"><tspan id="SvgjsTspan1387" style="text-decoration:;">N</tspan></tspan></text></g></g><g id="SvgjsG1388" transform="translate(544.21875,457.5)"><path id="SvgjsPath1389" d="M 0 0L 120 0L 120 40L 0 40Z" stroke="none" fill="none"></path><g id="SvgjsG1390"><text id="SvgjsText1391" font-family="微软雅黑" text-anchor="middle" font-size="13px" width="120px" fill="#323232" font-weight="400" align="middle" anchor="middle" family="微软雅黑" size="13px" weight="400" font-style="" opacity="1" y="10.05" transform="rotate(0)"><tspan id="SvgjsTspan1392" dy="16" x="60"><tspan id="SvgjsTspan1393" style="text-decoration:;">Y</tspan></tspan></text></g></g><g id="SvgjsG1394" transform="translate(602.21875,302.5)"><path id="SvgjsPath1395" d="M 0 0L 120 0L 120 40L 0 40Z" stroke="none" fill="none"></path><g id="SvgjsG1396"><text id="SvgjsText1397" font-family="微软雅黑" text-anchor="middle" font-size="13px" width="120px" fill="#323232" font-weight="400" align="middle" anchor="middle" family="微软雅黑" size="13px" weight="400" font-style="" opacity="1" y="10.05" transform="rotate(0)"><tspan id="SvgjsTspan1398" dy="16" x="60"><tspan id="SvgjsTspan1399" style="text-decoration:;">Y</tspan></tspan></text></g></g><g id="SvgjsG1400" transform="translate(351.21875,139.5)"><path id="SvgjsPath1401" d="M 0 0L 120 0L 120 40L 0 40Z" stroke="none" fill="none"></path><g id="SvgjsG1402"><text id="SvgjsText1403" font-family="微软雅黑" text-anchor="middle" font-size="13px" width="120px" fill="#323232" font-weight="400" align="middle" anchor="middle" family="微软雅黑" size="13px" weight="400" font-style="" opacity="1" y="10.05" transform="rotate(0)"><tspan id="SvgjsTspan1404" dy="16" x="60"><tspan id="SvgjsTspan1405" style="text-decoration:;">Y</tspan></tspan></text></g></g><g id="SvgjsG1406" transform="translate(544.21875,96.875)"><path id="SvgjsPath1407" d="M 0 0L 101 0L 101 44.25L 0 44.25Z" stroke="rgba(50,50,50,1)" stroke-width="2" fill-opacity="1" fill="#ffffff"></path><g id="SvgjsG1408"><text id="SvgjsText1409" font-family="微软雅黑" text-anchor="middle" font-size="13px" width="81px" fill="#323232" font-weight="400" align="middle" anchor="middle" family="微软雅黑" size="13px" weight="400" font-style="" opacity="1" y="12.175" transform="rotate(0)"><tspan id="SvgjsTspan1410" dy="16" x="50.5"><tspan id="SvgjsTspan1411" style="text-decoration:;">客户端关闭</tspan></tspan></text></g></g><g id="SvgjsG1412"><path id="SvgjsPath1413" d="M463.3125 119L503.765625 119L503.765625 119L544.21875 119" stroke="#323232" stroke-width="2" fill="none" marker-end="url(#SvgjsMarker1414)"></path></g><g id="SvgjsG1416" transform="translate(431.21875,84.75)"><path id="SvgjsPath1417" d="M 0 0L 120 0L 120 40L 0 40Z" stroke="none" fill="none"></path><g id="SvgjsG1418"><text id="SvgjsText1419" font-family="微软雅黑" text-anchor="middle" font-size="13px" width="120px" fill="#323232" font-weight="400" align="middle" anchor="middle" family="微软雅黑" size="13px" weight="400" font-style="" opacity="1" y="10.05" transform="rotate(0)"><tspan id="SvgjsTspan1420" dy="16" x="60"><tspan id="SvgjsTspan1421" style="text-decoration:;">N</tspan></tspan></text></g></g></svg>