<svg id="SvgjsSvg1006" width="561" height="508" xmlns="http://www.w3.org/2000/svg" version="1.1" xmlns:xlink="http://www.w3.org/1999/xlink" xmlns:svgjs="http://svgjs.com/svgjs"><defs id="SvgjsDefs1007"><marker id="SvgjsMarker1056" markerWidth="16" markerHeight="12" refX="16" refY="6" viewBox="0 0 16 12" orient="auto" markerUnits="userSpaceOnUse" stroke-dasharray="0,0"><path id="SvgjsPath1057" d="M0,2 L14,6 L0,11 L0,2" fill="#323232" stroke="#323232" stroke-width="2"></path></marker><marker id="SvgjsMarker1060" markerWidth="16" markerHeight="12" refX="16" refY="6" viewBox="0 0 16 12" orient="auto" markerUnits="userSpaceOnUse" stroke-dasharray="0,0"><path id="SvgjsPath1061" d="M0,2 L14,6 L0,11 L0,2" fill="#323232" stroke="#323232" stroke-width="2"></path></marker><marker id="SvgjsMarker1064" markerWidth="16" markerHeight="12" refX="16" refY="6" viewBox="0 0 16 12" orient="auto" markerUnits="userSpaceOnUse" stroke-dasharray="0,0"><path id="SvgjsPath1065" d="M0,2 L14,6 L0,11 L0,2" fill="#323232" stroke="#323232" stroke-width="2"></path></marker><marker id="SvgjsMarker1076" markerWidth="16" markerHeight="12" refX="16" refY="6" viewBox="0 0 16 12" orient="auto" markerUnits="userSpaceOnUse" stroke-dasharray="0,0"><path id="SvgjsPath1077" d="M0,2 L14,6 L0,11 L0,2" fill="#323232" stroke="#323232" stroke-width="2"></path></marker><marker id="SvgjsMarker1110" markerWidth="16" markerHeight="12" refX="16" refY="6" viewBox="0 0 16 12" orient="auto" markerUnits="userSpaceOnUse" stroke-dasharray="0,0"><path id="SvgjsPath1111" d="M0,2 L14,6 L0,11 L0,2" fill="#323232" stroke="#323232" stroke-width="2"></path></marker><marker id="SvgjsMarker1114" markerWidth="16" markerHeight="12" refX="16" refY="6" viewBox="0 0 16 12" orient="auto" markerUnits="userSpaceOnUse" stroke-dasharray="0,0"><path id="SvgjsPath1115" d="M0,2 L14,6 L0,11 L0,2" fill="#323232" stroke="#323232" stroke-width="2"></path></marker><marker id="SvgjsMarker1118" markerWidth="16" markerHeight="12" refX="16" refY="6" viewBox="0 0 16 12" orient="auto" markerUnits="userSpaceOnUse" stroke-dasharray="0,0"><path id="SvgjsPath1119" d="M0,2 L14,6 L0,11 L0,2" fill="#323232" stroke="#323232" stroke-width="2"></path></marker><marker id="SvgjsMarker1122" markerWidth="16" markerHeight="12" refX="16" refY="6" viewBox="0 0 16 12" orient="auto" markerUnits="userSpaceOnUse" stroke-dasharray="0,0"><path id="SvgjsPath1123" d="M0,2 L14,6 L0,11 L0,2" fill="#323232" stroke="#323232" stroke-width="2"></path></marker><marker id="SvgjsMarker1126" markerWidth="16" markerHeight="12" refX="16" refY="6" viewBox="0 0 16 12" orient="auto" markerUnits="userSpaceOnUse" stroke-dasharray="0,0"><path id="SvgjsPath1127" d="M0,2 L14,6 L0,11 L0,2" fill="#323232" stroke="#323232" stroke-width="2"></path></marker><marker id="SvgjsMarker1130" markerWidth="16" markerHeight="12" refX="16" refY="6" viewBox="0 0 16 12" orient="auto" markerUnits="userSpaceOnUse" stroke-dasharray="0,0"><path id="SvgjsPath1131" d="M0,2 L14,6 L0,11 L0,2" fill="#323232" stroke="#323232" stroke-width="2"></path></marker><marker id="SvgjsMarker1134" markerWidth="16" markerHeight="12" refX="16" refY="6" viewBox="0 0 16 12" orient="auto" markerUnits="userSpaceOnUse" stroke-dasharray="0,0"><path id="SvgjsPath1135" d="M0,2 L14,6 L0,11 L0,2" fill="#323232" stroke="#323232" stroke-width="2"></path></marker></defs><g id="SvgjsG1008" transform="translate(132.5625,286.5)"><path id="SvgjsPath1009" d="M 0 0L 111 0L 111 33L 0 33Z" stroke="rgba(50,50,50,1)" stroke-width="2" fill-opacity="1" fill="#ffffff"></path><g id="SvgjsG1010"><text id="SvgjsText1011" font-family="微软雅黑" text-anchor="middle" font-size="13px" width="91px" fill="#323232" font-weight="400" align="middle" anchor="middle" family="微软雅黑" size="13px" weight="400" font-style="" opacity="1" y="-1.45" transform="rotate(0)"><tspan id="SvgjsTspan1012" dy="16" x="55.5"><tspan id="SvgjsTspan1013" style="text-decoration:;">服务端转发消息</tspan></tspan><tspan id="SvgjsTspan1014" dy="16" x="55.5"><tspan id="SvgjsTspan1015" style="text-decoration:;">到所有群成员</tspan></tspan></text></g></g><g id="SvgjsG1016" transform="translate(228,97)"><path id="SvgjsPath1017" d="M 0 0L 111 0L 111 33L 0 33Z" stroke="rgba(50,50,50,1)" stroke-width="2" fill-opacity="1" fill="#ffffff"></path><g id="SvgjsG1018"><text id="SvgjsText1019" font-family="微软雅黑" text-anchor="middle" font-size="13px" width="91px" fill="#323232" font-weight="400" align="middle" anchor="middle" family="微软雅黑" size="13px" weight="400" font-style="" opacity="1" y="6.55" transform="rotate(0)"><tspan id="SvgjsTspan1020" dy="16" x="55.5"><tspan id="SvgjsTspan1021" style="text-decoration:;">发送消息命令</tspan></tspan></text></g></g><g id="SvgjsG1022" transform="translate(228,25)"><path id="SvgjsPath1023" d="M 0 0L 111 0L 111 33L 0 33Z" stroke="rgba(50,50,50,1)" stroke-width="2" fill-opacity="1" fill="#ffffff"></path><g id="SvgjsG1024"><text id="SvgjsText1025" font-family="微软雅黑" text-anchor="middle" font-size="13px" width="91px" fill="#323232" font-weight="400" align="middle" anchor="middle" family="微软雅黑" size="13px" weight="400" font-style="" opacity="1" y="6.55" transform="rotate(0)"><tspan id="SvgjsTspan1026" dy="16" x="55.5"><tspan id="SvgjsTspan1027" style="text-decoration:;">用户登录</tspan></tspan></text></g></g><g id="SvgjsG1028" transform="translate(313.875,159)"><path id="SvgjsPath1029" d="M 0 31L 65.0625 0L 130.125 31L 65.0625 62Z" stroke="rgba(50,50,50,1)" stroke-width="2" fill-opacity="1" fill="#ffffff"></path><g id="SvgjsG1030"><text id="SvgjsText1031" font-family="微软雅黑" text-anchor="middle" font-size="13px" width="111px" fill="#323232" font-weight="400" align="middle" anchor="middle" family="微软雅黑" size="13px" weight="400" font-style="" opacity="1" y="21.360000000000003" transform="rotate(0)"><tspan id="SvgjsTspan1032" dy="16" x="65.5"><tspan id="SvgjsTspan1033" style="text-decoration:;">对方用户名存在？</tspan></tspan></text></g></g><g id="SvgjsG1034" transform="translate(126.4375,162)"><path id="SvgjsPath1035" d="M 0 40.5L 61.625 0L 123.25 40.5L 61.625 81Z" stroke="rgba(50,50,50,1)" stroke-width="2" fill-opacity="1" fill="#ffffff"></path><g id="SvgjsG1036"><text id="SvgjsText1037" font-family="微软雅黑" text-anchor="middle" font-size="13px" width="104px" fill="#323232" font-weight="400" align="middle" anchor="middle" family="微软雅黑" size="13px" weight="400" font-style="" opacity="1" y="30.955000000000002" transform="rotate(0)"><tspan id="SvgjsTspan1038" dy="16" x="62"><tspan id="SvgjsTspan1039" style="text-decoration:;">用户在群中？</tspan></tspan></text></g></g><g id="SvgjsG1040" transform="translate(330.5625,315.5)"><path id="SvgjsPath1041" d="M 0 0L 120 0L 120 40L 0 40Z" stroke="none" fill="none"></path><g id="SvgjsG1042"><text id="SvgjsText1043" font-family="微软雅黑" text-anchor="middle" font-size="13px" width="120px" fill="#323232" font-weight="400" align="middle" anchor="middle" family="微软雅黑" size="13px" weight="400" font-style="" opacity="1" y="10.05" transform="rotate(0)"><tspan id="SvgjsTspan1044" dy="16" x="60"><tspan id="SvgjsTspan1045" style="text-decoration:;">Y</tspan></tspan></text></g></g><g id="SvgjsG1046" transform="translate(25,365.5)"><path id="SvgjsPath1047" d="M 0 0L 82 0L 82 48.5L 0 48.5Z" stroke="rgba(50,50,50,1)" stroke-width="2" fill-opacity="1" fill="#ffffff"></path><g id="SvgjsG1048"><text id="SvgjsText1049" font-family="微软雅黑" text-anchor="middle" font-size="13px" width="62px" fill="#323232" font-weight="400" align="middle" anchor="middle" family="微软雅黑" size="13px" weight="400" font-style="" opacity="1" y="6.3" transform="rotate(0)"><tspan id="SvgjsTspan1050" dy="16" x="41"><tspan id="SvgjsTspan1051" style="text-decoration:;">群聊消息</tspan></tspan><tspan id="SvgjsTspan1052" dy="16" x="41"><tspan id="SvgjsTspan1053" style="text-decoration:;">发送失败</tspan></tspan></text></g></g><g id="SvgjsG1054"><path id="SvgjsPath1055" d="M228 113.5L188.0625 113.5L188.0625 162" stroke="#323232" stroke-width="2" fill="none" marker-end="url(#SvgjsMarker1056)"></path></g><g id="SvgjsG1058"><path id="SvgjsPath1059" d="M188.0625 243L188.0625 264.75L188.0625 264.75L188.0625 286.5" stroke="#323232" stroke-width="2" fill="none" marker-end="url(#SvgjsMarker1060)"></path></g><g id="SvgjsG1062"><path id="SvgjsPath1063" d="M126.4375 202.5L66 202.5L66 365.5" stroke="#323232" stroke-width="2" fill="none" marker-end="url(#SvgjsMarker1064)"></path></g><g id="SvgjsG1066" transform="translate(148.84375,365.5)"><path id="SvgjsPath1067" d="M 0 0L 78.4375 0L 78.4375 48.5L 0 48.5Z" stroke="rgba(50,50,50,1)" stroke-width="2" fill-opacity="1" fill="#ffffff"></path><g id="SvgjsG1068"><text id="SvgjsText1069" font-family="微软雅黑" text-anchor="middle" font-size="13px" width="59px" fill="#323232" font-weight="400" align="middle" anchor="middle" family="微软雅黑" size="13px" weight="400" font-style="" opacity="1" y="6.3" transform="rotate(0)"><tspan id="SvgjsTspan1070" dy="16" x="39.5"><tspan id="SvgjsTspan1071" style="text-decoration:;">群聊消息</tspan></tspan><tspan id="SvgjsTspan1072" dy="16" x="39.5"><tspan id="SvgjsTspan1073" style="text-decoration:;">发送成功</tspan></tspan></text></g></g><g id="SvgjsG1074"><path id="SvgjsPath1075" d="M188.0625 319.5L188.0625 342.5L188.0625 342.5L188.0625 365.5" stroke="#323232" stroke-width="2" fill="none" marker-end="url(#SvgjsMarker1076)"></path></g><g id="SvgjsG1078" transform="translate(454,434)"><path id="SvgjsPath1079" d="M 0 0L 82 0L 82 48.5L 0 48.5Z" stroke="rgba(50,50,50,1)" stroke-width="2" fill-opacity="1" fill="#ffffff"></path><g id="SvgjsG1080"><text id="SvgjsText1081" font-family="微软雅黑" text-anchor="middle" font-size="13px" width="62px" fill="#323232" font-weight="400" align="middle" anchor="middle" family="微软雅黑" size="13px" weight="400" font-style="" opacity="1" y="6.3" transform="rotate(0)"><tspan id="SvgjsTspan1082" dy="16" x="41"><tspan id="SvgjsTspan1083" style="text-decoration:;">私聊消息</tspan></tspan><tspan id="SvgjsTspan1084" dy="16" x="41"><tspan id="SvgjsTspan1085" style="text-decoration:;">发送失败</tspan></tspan></text></g></g><g id="SvgjsG1086" transform="translate(317.3125,262)"><path id="SvgjsPath1087" d="M 0 31L 61.625 0L 123.25 31L 61.625 62Z" stroke="rgba(50,50,50,1)" stroke-width="2" fill-opacity="1" fill="#ffffff"></path><g id="SvgjsG1088"><text id="SvgjsText1089" font-family="微软雅黑" text-anchor="middle" font-size="13px" width="104px" fill="#323232" font-weight="400" align="middle" anchor="middle" family="微软雅黑" size="13px" weight="400" font-style="" opacity="1" y="21.360000000000003" transform="rotate(0)"><tspan id="SvgjsTspan1090" dy="16" x="62"><tspan id="SvgjsTspan1091" style="text-decoration:;">对方用户在线？</tspan></tspan></text></g></g><g id="SvgjsG1092" transform="translate(326.65625,355.5)"><path id="SvgjsPath1093" d="M 0 0L 104.5625 0L 104.5625 34.5L 0 34.5Z" stroke="rgba(50,50,50,1)" stroke-width="2" fill-opacity="1" fill="#ffffff"></path><g id="SvgjsG1094"><text id="SvgjsText1095" font-family="微软雅黑" text-anchor="middle" font-size="13px" width="85px" fill="#323232" font-weight="400" align="middle" anchor="middle" family="微软雅黑" size="13px" weight="400" font-style="" opacity="1" y="-0.7" transform="rotate(0)"><tspan id="SvgjsTspan1096" dy="16" x="52.5"><tspan id="SvgjsTspan1097" style="text-decoration:;">服务端转发消</tspan></tspan><tspan id="SvgjsTspan1098" dy="16" x="52.5"><tspan id="SvgjsTspan1099" style="text-decoration:;">息到该用户</tspan></tspan></text></g></g><g id="SvgjsG1100" transform="translate(337.9375,434)"><path id="SvgjsPath1101" d="M 0 0L 82 0L 82 48.5L 0 48.5Z" stroke="rgba(50,50,50,1)" stroke-width="2" fill-opacity="1" fill="#ffffff"></path><g id="SvgjsG1102"><text id="SvgjsText1103" font-family="微软雅黑" text-anchor="middle" font-size="13px" width="62px" fill="#323232" font-weight="400" align="middle" anchor="middle" family="微软雅黑" size="13px" weight="400" font-style="" opacity="1" y="6.3" transform="rotate(0)"><tspan id="SvgjsTspan1104" dy="16" x="41"><tspan id="SvgjsTspan1105" style="text-decoration:;">私聊消息</tspan></tspan><tspan id="SvgjsTspan1106" dy="16" x="41"><tspan id="SvgjsTspan1107" style="text-decoration:;">发送成功</tspan></tspan></text></g></g><g id="SvgjsG1108"><path id="SvgjsPath1109" d="M339 113.5L378.9375 113.5L378.9375 159" stroke="#323232" stroke-width="2" fill="none" marker-end="url(#SvgjsMarker1110)"></path></g><g id="SvgjsG1112"><path id="SvgjsPath1113" d="M378.9375 221L378.9375 241.5L378.9375 241.5L378.9375 262" stroke="#323232" stroke-width="2" fill="none" marker-end="url(#SvgjsMarker1114)"></path></g><g id="SvgjsG1116"><path id="SvgjsPath1117" d="M378.9375 324L378.9375 339.75L378.9375 339.75L378.9375 355.5" stroke="#323232" stroke-width="2" fill="none" marker-end="url(#SvgjsMarker1118)"></path></g><g id="SvgjsG1120"><path id="SvgjsPath1121" d="M378.9375 390L378.9375 412L378.9375 412L378.9375 434" stroke="#323232" stroke-width="2" fill="none" marker-end="url(#SvgjsMarker1122)"></path></g><g id="SvgjsG1124"><path id="SvgjsPath1125" d="M440.5625 293L495 293L495 434" stroke="#323232" stroke-width="2" fill="none" marker-end="url(#SvgjsMarker1126)"></path></g><g id="SvgjsG1128"><path id="SvgjsPath1129" d="M444 190L495 190L495 434" stroke="#323232" stroke-width="2" fill="none" marker-end="url(#SvgjsMarker1130)"></path></g><g id="SvgjsG1132"><path id="SvgjsPath1133" d="M283.5 58L283.5 77.5L283.5 77.5L283.5 97" stroke="#323232" stroke-width="2" fill="none" marker-end="url(#SvgjsMarker1134)"></path></g><g id="SvgjsG1136" transform="translate(330.5625,217)"><path id="SvgjsPath1137" d="M 0 0L 120 0L 120 40L 0 40Z" stroke="none" fill="none"></path><g id="SvgjsG1138"><text id="SvgjsText1139" font-family="微软雅黑" text-anchor="middle" font-size="13px" width="120px" fill="#323232" font-weight="400" align="middle" anchor="middle" family="微软雅黑" size="13px" weight="400" font-style="" opacity="1" y="10.05" transform="rotate(0)"><tspan id="SvgjsTspan1140" dy="16" x="60"><tspan id="SvgjsTspan1141" style="text-decoration:;">Y</tspan></tspan></text></g></g><g id="SvgjsG1142" transform="translate(138.5625,239)"><path id="SvgjsPath1143" d="M 0 0L 120 0L 120 40L 0 40Z" stroke="none" fill="none"></path><g id="SvgjsG1144"><text id="SvgjsText1145" font-family="微软雅黑" text-anchor="middle" font-size="13px" width="120px" fill="#323232" font-weight="400" align="middle" anchor="middle" family="微软雅黑" size="13px" weight="400" font-style="" opacity="1" y="10.05" transform="rotate(0)"><tspan id="SvgjsTspan1146" dy="16" x="60"><tspan id="SvgjsTspan1147" style="text-decoration:;">Y</tspan></tspan></text></g></g><g id="SvgjsG1148" transform="translate(337.9375,105)"><path id="SvgjsPath1149" d="M 0 0L 120 0L 120 40L 0 40Z" stroke="none" fill="none"></path><g id="SvgjsG1150"><text id="SvgjsText1151" font-family="微软雅黑" text-anchor="middle" font-size="13px" width="120px" fill="#323232" font-weight="400" align="middle" anchor="middle" family="微软雅黑" size="13px" weight="400" font-style="" opacity="1" y="10.05" transform="rotate(0)"><tspan id="SvgjsTspan1152" dy="16" x="60"><tspan id="SvgjsTspan1153" style="text-decoration:;">私聊</tspan></tspan></text></g></g><g id="SvgjsG1154" transform="translate(107.28125,105)"><path id="SvgjsPath1155" d="M 0 0L 120 0L 120 40L 0 40Z" stroke="none" fill="none"></path><g id="SvgjsG1156"><text id="SvgjsText1157" font-family="微软雅黑" text-anchor="middle" font-size="13px" width="120px" fill="#323232" font-weight="400" align="middle" anchor="middle" family="微软雅黑" size="13px" weight="400" font-style="" opacity="1" y="10.05" transform="rotate(0)"><tspan id="SvgjsTspan1158" dy="16" x="60"><tspan id="SvgjsTspan1159" style="text-decoration:;">群聊</tspan></tspan></text></g></g><g id="SvgjsG1160" transform="translate(403.5625,262)"><path id="SvgjsPath1161" d="M 0 0L 120 0L 120 40L 0 40Z" stroke="none" fill="none"></path><g id="SvgjsG1162"><text id="SvgjsText1163" font-family="微软雅黑" text-anchor="middle" font-size="13px" width="120px" fill="#323232" font-weight="400" align="middle" anchor="middle" family="微软雅黑" size="13px" weight="400" font-style="" opacity="1" y="10.05" transform="rotate(0)"><tspan id="SvgjsTspan1164" dy="16" x="60"><tspan id="SvgjsTspan1165" style="text-decoration:;">N</tspan></tspan></text></g></g><g id="SvgjsG1166" transform="translate(403.5625,159)"><path id="SvgjsPath1167" d="M 0 0L 120 0L 120 40L 0 40Z" stroke="none" fill="none"></path><g id="SvgjsG1168"><text id="SvgjsText1169" font-family="微软雅黑" text-anchor="middle" font-size="13px" width="120px" fill="#323232" font-weight="400" align="middle" anchor="middle" family="微软雅黑" size="13px" weight="400" font-style="" opacity="1" y="10.05" transform="rotate(0)"><tspan id="SvgjsTspan1170" dy="16" x="60"><tspan id="SvgjsTspan1171" style="text-decoration:;">N</tspan></tspan></text></g></g><g id="SvgjsG1172" transform="translate(35.5625,173)"><path id="SvgjsPath1173" d="M 0 0L 120 0L 120 40L 0 40Z" stroke="none" fill="none"></path><g id="SvgjsG1174"><text id="SvgjsText1175" font-family="微软雅黑" text-anchor="middle" font-size="13px" width="120px" fill="#323232" font-weight="400" align="middle" anchor="middle" family="微软雅黑" size="13px" weight="400" font-style="" opacity="1" y="10.05" transform="rotate(0)"><tspan id="SvgjsTspan1176" dy="16" x="60"><tspan id="SvgjsTspan1177" style="text-decoration:;">N</tspan></tspan></text></g></g></svg>