<svg id="SvgjsSvg1380" width="965.34375" height="790.5" xmlns="http://www.w3.org/2000/svg" version="1.1" xmlns:xlink="http://www.w3.org/1999/xlink" xmlns:svgjs="http://svgjs.com/svgjs"><defs id="SvgjsDefs1381"><marker id="SvgjsMarker1446" markerWidth="16" markerHeight="12" refX="16" refY="6" viewBox="0 0 16 12" orient="auto" markerUnits="userSpaceOnUse" stroke-dasharray="0,0"><path id="SvgjsPath1447" d="M0,2 L14,6 L0,11 L0,2" fill="#323232" stroke="#323232" stroke-width="2"></path></marker><marker id="SvgjsMarker1450" markerWidth="16" markerHeight="12" refX="16" refY="6" viewBox="0 0 16 12" orient="auto" markerUnits="userSpaceOnUse" stroke-dasharray="0,0"><path id="SvgjsPath1451" d="M0,2 L14,6 L0,11 L0,2" fill="#323232" stroke="#323232" stroke-width="2"></path></marker><marker id="SvgjsMarker1454" markerWidth="16" markerHeight="12" refX="16" refY="6" viewBox="0 0 16 12" orient="auto" markerUnits="userSpaceOnUse" stroke-dasharray="0,0"><path id="SvgjsPath1455" d="M0,2 L14,6 L0,11 L0,2" fill="#323232" stroke="#323232" stroke-width="2"></path></marker><marker id="SvgjsMarker1458" markerWidth="16" markerHeight="12" refX="16" refY="6" viewBox="0 0 16 12" orient="auto" markerUnits="userSpaceOnUse" stroke-dasharray="0,0"><path id="SvgjsPath1459" d="M0,2 L14,6 L0,11 L0,2" fill="#323232" stroke="#323232" stroke-width="2"></path></marker><marker id="SvgjsMarker1520" markerWidth="16" markerHeight="12" refX="16" refY="6" viewBox="0 0 16 12" orient="auto" markerUnits="userSpaceOnUse" stroke-dasharray="0,0"><path id="SvgjsPath1521" d="M0,2 L14,6 L0,11 L0,2" fill="#323232" stroke="#323232" stroke-width="2"></path></marker><marker id="SvgjsMarker1524" markerWidth="16" markerHeight="12" refX="16" refY="6" viewBox="0 0 16 12" orient="auto" markerUnits="userSpaceOnUse" stroke-dasharray="0,0"><path id="SvgjsPath1525" d="M0,2 L14,6 L0,11 L0,2" fill="#323232" stroke="#323232" stroke-width="2"></path></marker><marker id="SvgjsMarker1528" markerWidth="16" markerHeight="12" refX="16" refY="6" viewBox="0 0 16 12" orient="auto" markerUnits="userSpaceOnUse" stroke-dasharray="0,0"><path id="SvgjsPath1529" d="M0,2 L14,6 L0,11 L0,2" fill="#323232" stroke="#323232" stroke-width="2"></path></marker><marker id="SvgjsMarker1532" markerWidth="16" markerHeight="12" refX="16" refY="6" viewBox="0 0 16 12" orient="auto" markerUnits="userSpaceOnUse" stroke-dasharray="0,0"><path id="SvgjsPath1533" d="M0,2 L14,6 L0,11 L0,2" fill="#323232" stroke="#323232" stroke-width="2"></path></marker><marker id="SvgjsMarker1548" markerWidth="16" markerHeight="12" refX="16" refY="6" viewBox="0 0 16 12" orient="auto" markerUnits="userSpaceOnUse" stroke-dasharray="0,0"><path id="SvgjsPath1549" d="M0,2 L14,6 L0,11 L0,2" fill="#323232" stroke="#323232" stroke-width="2"></path></marker><marker id="SvgjsMarker1552" markerWidth="16" markerHeight="12" refX="16" refY="6" viewBox="0 0 16 12" orient="auto" markerUnits="userSpaceOnUse" stroke-dasharray="0,0"><path id="SvgjsPath1553" d="M0,2 L14,6 L0,11 L0,2" fill="#323232" stroke="#323232" stroke-width="2"></path></marker><marker id="SvgjsMarker1556" markerWidth="16" markerHeight="12" refX="16" refY="6" viewBox="0 0 16 12" orient="auto" markerUnits="userSpaceOnUse" stroke-dasharray="0,0"><path id="SvgjsPath1557" d="M0,2 L14,6 L0,11 L0,2" fill="#323232" stroke="#323232" stroke-width="2"></path></marker><marker id="SvgjsMarker1560" markerWidth="16" markerHeight="12" refX="16" refY="6" viewBox="0 0 16 12" orient="auto" markerUnits="userSpaceOnUse" stroke-dasharray="0,0"><path id="SvgjsPath1561" d="M0,2 L14,6 L0,11 L0,2" fill="#323232" stroke="#323232" stroke-width="2"></path></marker><marker id="SvgjsMarker1564" markerWidth="16" markerHeight="12" refX="16" refY="6" viewBox="0 0 16 12" orient="auto" markerUnits="userSpaceOnUse" stroke-dasharray="0,0"><path id="SvgjsPath1565" d="M0,2 L14,6 L0,11 L0,2" fill="#323232" stroke="#323232" stroke-width="2"></path></marker><marker id="SvgjsMarker1568" markerWidth="16" markerHeight="12" refX="16" refY="6" viewBox="0 0 16 12" orient="auto" markerUnits="userSpaceOnUse" stroke-dasharray="0,0"><path id="SvgjsPath1569" d="M0,2 L14,6 L0,11 L0,2" fill="#323232" stroke="#323232" stroke-width="2"></path></marker><marker id="SvgjsMarker1572" markerWidth="16" markerHeight="12" refX="16" refY="6" viewBox="0 0 16 12" orient="auto" markerUnits="userSpaceOnUse" stroke-dasharray="0,0"><path id="SvgjsPath1573" d="M0,2 L14,6 L0,11 L0,2" fill="#323232" stroke="#323232" stroke-width="2"></path></marker><marker id="SvgjsMarker1588" markerWidth="16" markerHeight="12" refX="16" refY="6" viewBox="0 0 16 12" orient="auto" markerUnits="userSpaceOnUse" stroke-dasharray="0,0"><path id="SvgjsPath1589" d="M0,2 L14,6 L0,11 L0,2" fill="#323232" stroke="#323232" stroke-width="2"></path></marker><marker id="SvgjsMarker1592" markerWidth="16" markerHeight="12" refX="16" refY="6" viewBox="0 0 16 12" orient="auto" markerUnits="userSpaceOnUse" stroke-dasharray="0,0"><path id="SvgjsPath1593" d="M0,2 L14,6 L0,11 L0,2" fill="#323232" stroke="#323232" stroke-width="2"></path></marker><marker id="SvgjsMarker1596" markerWidth="16" markerHeight="12" refX="16" refY="6" viewBox="0 0 16 12" orient="auto" markerUnits="userSpaceOnUse" stroke-dasharray="0,0"><path id="SvgjsPath1597" d="M0,2 L14,6 L0,11 L0,2" fill="#323232" stroke="#323232" stroke-width="2"></path></marker><marker id="SvgjsMarker1600" markerWidth="16" markerHeight="12" refX="16" refY="6" viewBox="0 0 16 12" orient="auto" markerUnits="userSpaceOnUse" stroke-dasharray="0,0"><path id="SvgjsPath1601" d="M0,2 L14,6 L0,11 L0,2" fill="#323232" stroke="#323232" stroke-width="2"></path></marker><marker id="SvgjsMarker1604" markerWidth="16" markerHeight="12" refX="16" refY="6" viewBox="0 0 16 12" orient="auto" markerUnits="userSpaceOnUse" stroke-dasharray="0,0"><path id="SvgjsPath1605" d="M0,2 L14,6 L0,11 L0,2" fill="#323232" stroke="#323232" stroke-width="2"></path></marker><marker id="SvgjsMarker1608" markerWidth="16" markerHeight="12" refX="16" refY="6" viewBox="0 0 16 12" orient="auto" markerUnits="userSpaceOnUse" stroke-dasharray="0,0"><path id="SvgjsPath1609" d="M0,2 L14,6 L0,11 L0,2" fill="#323232" stroke="#323232" stroke-width="2"></path></marker><marker id="SvgjsMarker1714" markerWidth="16" markerHeight="12" refX="16" refY="6" viewBox="0 0 16 12" orient="auto" markerUnits="userSpaceOnUse" stroke-dasharray="0,0"><path id="SvgjsPath1715" d="M0,2 L14,6 L0,11 L0,2" fill="#323232" stroke="#323232" stroke-width="2"></path></marker><marker id="SvgjsMarker1724" markerWidth="16" markerHeight="12" refX="16" refY="6" viewBox="0 0 16 12" orient="auto" markerUnits="userSpaceOnUse" stroke-dasharray="0,0"><path id="SvgjsPath1725" d="M0,2 L14,6 L0,11 L0,2" fill="#323232" stroke="#323232" stroke-width="2"></path></marker><marker id="SvgjsMarker1728" markerWidth="16" markerHeight="12" refX="16" refY="6" viewBox="0 0 16 12" orient="auto" markerUnits="userSpaceOnUse" stroke-dasharray="0,0"><path id="SvgjsPath1729" d="M0,2 L14,6 L0,11 L0,2" fill="#323232" stroke="#323232" stroke-width="2"></path></marker><marker id="SvgjsMarker1738" markerWidth="16" markerHeight="12" refX="16" refY="6" viewBox="0 0 16 12" orient="auto" markerUnits="userSpaceOnUse" stroke-dasharray="0,0"><path id="SvgjsPath1739" d="M0,2 L14,6 L0,11 L0,2" fill="#323232" stroke="#323232" stroke-width="2"></path></marker><marker id="SvgjsMarker1754" markerWidth="16" markerHeight="12" refX="16" refY="6" viewBox="0 0 16 12" orient="auto" markerUnits="userSpaceOnUse" stroke-dasharray="0,0"><path id="SvgjsPath1755" d="M0,2 L14,6 L0,11 L0,2" fill="#323232" stroke="#323232" stroke-width="2"></path></marker><marker id="SvgjsMarker1758" markerWidth="16" markerHeight="12" refX="16" refY="6" viewBox="0 0 16 12" orient="auto" markerUnits="userSpaceOnUse" stroke-dasharray="0,0"><path id="SvgjsPath1759" d="M0,2 L14,6 L0,11 L0,2" fill="#323232" stroke="#323232" stroke-width="2"></path></marker><marker id="SvgjsMarker1774" markerWidth="16" markerHeight="12" refX="16" refY="6" viewBox="0 0 16 12" orient="auto" markerUnits="userSpaceOnUse" stroke-dasharray="0,0"><path id="SvgjsPath1775" d="M0,2 L14,6 L0,11 L0,2" fill="#323232" stroke="#323232" stroke-width="2"></path></marker><marker id="SvgjsMarker1778" markerWidth="16" markerHeight="12" refX="16" refY="6" viewBox="0 0 16 12" orient="auto" markerUnits="userSpaceOnUse" stroke-dasharray="0,0"><path id="SvgjsPath1779" d="M0,2 L14,6 L0,11 L0,2" fill="#323232" stroke="#323232" stroke-width="2"></path></marker></defs><g id="SvgjsG1382" transform="translate(62.171875,303)"><path id="SvgjsPath1383" d="M 0 0L 120 0L 120 40L 0 40Z" stroke="none" fill="none"></path><g id="SvgjsG1384"><text id="SvgjsText1385" font-family="微软雅黑" text-anchor="middle" font-size="13px" width="120px" fill="#323232" font-weight="400" align="middle" anchor="middle" family="微软雅黑" size="13px" weight="400" font-style="" opacity="1" y="10.05" transform="rotate(0)"><tspan id="SvgjsTspan1386" dy="16" x="60"><tspan id="SvgjsTspan1387" style="text-decoration:;">Y</tspan></tspan></text></g></g><g id="SvgjsG1388" transform="translate(234.0625,112)"><path id="SvgjsPath1389" d="M 0 0L 120 0L 120 40L 0 40Z" stroke="none" fill="none"></path><g id="SvgjsG1390"><text id="SvgjsText1391" font-family="微软雅黑" text-anchor="middle" font-size="13px" width="120px" fill="#323232" font-weight="400" align="middle" anchor="middle" family="微软雅黑" size="13px" weight="400" font-style="" opacity="1" y="10.05" transform="rotate(0)"><tspan id="SvgjsTspan1392" dy="16" x="60"><tspan id="SvgjsTspan1393" style="text-decoration:;">创建</tspan></tspan></text></g></g><g id="SvgjsG1394" transform="translate(378.0625,25)"><path id="SvgjsPath1395" d="M 0 0L 111 0L 111 33L 0 33Z" stroke="rgba(50,50,50,1)" stroke-width="2" fill-opacity="1" fill="#ffffff"></path><g id="SvgjsG1396"><text id="SvgjsText1397" font-family="微软雅黑" text-anchor="middle" font-size="13px" width="91px" fill="#323232" font-weight="400" align="middle" anchor="middle" family="微软雅黑" size="13px" weight="400" font-style="" opacity="1" y="6.55" transform="rotate(0)"><tspan id="SvgjsTspan1398" dy="16" x="55.5"><tspan id="SvgjsTspan1399" style="text-decoration:;">用户登录</tspan></tspan></text></g></g><g id="SvgjsG1400" transform="translate(361.953125,116)"><path id="SvgjsPath1401" d="M 0 34L 71.609375 0L 143.21875 34L 71.609375 68Z" stroke="rgba(50,50,50,1)" stroke-width="2" fill-opacity="1" fill="#ffffff"></path><g id="SvgjsG1402"><text id="SvgjsText1403" font-family="微软雅黑" text-anchor="middle" font-size="13px" width="124px" fill="#323232" font-weight="400" align="middle" anchor="middle" family="微软雅黑" size="13px" weight="400" font-style="" opacity="1" y="24.39" transform="rotate(0)"><tspan id="SvgjsTspan1404" dy="16" x="72"><tspan id="SvgjsTspan1405" style="text-decoration:;">创建/加入/退出群聊</tspan></tspan></text></g></g><g id="SvgjsG1406" transform="translate(148.953125,196)"><path id="SvgjsPath1407" d="M 0 34L 71.609375 0L 143.21875 34L 71.609375 68Z" stroke="rgba(50,50,50,1)" stroke-width="2" fill-opacity="1" fill="#ffffff"></path><g id="SvgjsG1408"><text id="SvgjsText1409" font-family="微软雅黑" text-anchor="middle" font-size="13px" width="124px" fill="#323232" font-weight="400" align="middle" anchor="middle" family="微软雅黑" size="13px" weight="400" font-style="" opacity="1" y="24.39" transform="rotate(0)"><tspan id="SvgjsTspan1410" dy="16" x="72"><tspan id="SvgjsTspan1411" style="text-decoration:;">用户建群数已满？</tspan></tspan></text></g></g><g id="SvgjsG1412" transform="translate(148.953125,303)"><path id="SvgjsPath1413" d="M 0 34L 71.609375 0L 143.21875 34L 71.609375 68Z" stroke="rgba(50,50,50,1)" stroke-width="2" fill-opacity="1" fill="#ffffff"></path><g id="SvgjsG1414"><text id="SvgjsText1415" font-family="微软雅黑" text-anchor="middle" font-size="13px" width="124px" fill="#323232" font-weight="400" align="middle" anchor="middle" family="微软雅黑" size="13px" weight="400" font-style="" opacity="1" y="24.39" transform="rotate(0)"><tspan id="SvgjsTspan1416" dy="16" x="72"><tspan id="SvgjsTspan1417" style="text-decoration:;">群名重复？</tspan></tspan></text></g></g><g id="SvgjsG1418" transform="translate(148.953125,404)"><path id="SvgjsPath1419" d="M 0 34L 71.609375 0L 143.21875 34L 71.609375 68Z" stroke="rgba(50,50,50,1)" stroke-width="2" fill-opacity="1" fill="#ffffff"></path><g id="SvgjsG1420"><text id="SvgjsText1421" font-family="微软雅黑" text-anchor="middle" font-size="13px" width="124px" fill="#323232" font-weight="400" align="middle" anchor="middle" family="微软雅黑" size="13px" weight="400" font-style="" opacity="1" y="24.39" transform="rotate(0)"><tspan id="SvgjsTspan1422" dy="16" x="72"><tspan id="SvgjsTspan1423" style="text-decoration:;">群名合法？</tspan></tspan></text></g></g><g id="SvgjsG1424" transform="translate(165.0625,523.5)"><path id="SvgjsPath1425" d="M 0 0L 111 0L 111 33L 0 33Z" stroke="rgba(50,50,50,1)" stroke-width="2" fill-opacity="1" fill="#ffffff"></path><g id="SvgjsG1426"><text id="SvgjsText1427" font-family="微软雅黑" text-anchor="middle" font-size="13px" width="91px" fill="#323232" font-weight="400" align="middle" anchor="middle" family="微软雅黑" size="13px" weight="400" font-style="" opacity="1" y="-1.45" transform="rotate(0)"><tspan id="SvgjsTspan1428" dy="16" x="55.5"><tspan id="SvgjsTspan1429" style="text-decoration:;">更新用户信息和</tspan></tspan><tspan id="SvgjsTspan1430" dy="16" x="55.5"><tspan id="SvgjsTspan1431" style="text-decoration:;">群聊信息</tspan></tspan></text></g></g><g id="SvgjsG1432" transform="translate(165.0625,595.5)"><path id="SvgjsPath1433" d="M 0 0L 111 0L 111 33L 0 33Z" stroke="rgba(50,50,50,1)" stroke-width="2" fill-opacity="1" fill="#ffffff"></path><g id="SvgjsG1434"><text id="SvgjsText1435" font-family="微软雅黑" text-anchor="middle" font-size="13px" width="91px" fill="#323232" font-weight="400" align="middle" anchor="middle" family="微软雅黑" size="13px" weight="400" font-style="" opacity="1" y="6.55" transform="rotate(0)"><tspan id="SvgjsTspan1436" dy="16" x="55.5"><tspan id="SvgjsTspan1437" style="text-decoration:;">建群成功</tspan></tspan></text></g></g><g id="SvgjsG1438" transform="translate(25,595.5)"><path id="SvgjsPath1439" d="M 0 0L 111 0L 111 33L 0 33Z" stroke="rgba(50,50,50,1)" stroke-width="2" fill-opacity="1" fill="#ffffff"></path><g id="SvgjsG1440"><text id="SvgjsText1441" font-family="微软雅黑" text-anchor="middle" font-size="13px" width="91px" fill="#323232" font-weight="400" align="middle" anchor="middle" family="微软雅黑" size="13px" weight="400" font-style="" opacity="1" y="6.55" transform="rotate(0)"><tspan id="SvgjsTspan1442" dy="16" x="55.5"><tspan id="SvgjsTspan1443" style="text-decoration:;">建群失败</tspan></tspan></text></g></g><g id="SvgjsG1444"><path id="SvgjsPath1445" d="M433.5625 58L433.5625 87L433.5625 87L433.5625 116" stroke="#323232" stroke-width="2" fill="none" marker-end="url(#SvgjsMarker1446)"></path></g><g id="SvgjsG1448"><path id="SvgjsPath1449" d="M220.5625 371L220.5625 387.5L220.5625 387.5L220.5625 404" stroke="#323232" stroke-width="2" fill="none" marker-end="url(#SvgjsMarker1450)"></path></g><g id="SvgjsG1452"><path id="SvgjsPath1453" d="M220.5625 472L220.5625 497.75L220.5625 497.75L220.5625 523.5" stroke="#323232" stroke-width="2" fill="none" marker-end="url(#SvgjsMarker1454)"></path></g><g id="SvgjsG1456"><path id="SvgjsPath1457" d="M220.5625 556.5L220.5625 576L220.5625 576L220.5625 595.5" stroke="#323232" stroke-width="2" fill="none" marker-end="url(#SvgjsMarker1458)"></path></g><g id="SvgjsG1460" transform="translate(654.84375,449)"><path id="SvgjsPath1461" d="M 0 34L 71.609375 0L 143.21875 34L 71.609375 68Z" stroke="rgba(50,50,50,1)" stroke-width="2" fill-opacity="1" fill="#ffffff"></path><g id="SvgjsG1462"><text id="SvgjsText1463" font-family="微软雅黑" text-anchor="middle" font-size="13px" width="124px" fill="#323232" font-weight="400" align="middle" anchor="middle" family="微软雅黑" size="13px" weight="400" font-style="" opacity="1" y="24.39" transform="rotate(0)"><tspan id="SvgjsTspan1464" dy="16" x="72"><tspan id="SvgjsTspan1465" style="text-decoration:;">用户是群主？</tspan></tspan></text></g></g><g id="SvgjsG1466" transform="translate(654.84375,327)"><path id="SvgjsPath1467" d="M 0 34L 71.609375 0L 143.21875 34L 71.609375 68Z" stroke="rgba(50,50,50,1)" stroke-width="2" fill-opacity="1" fill="#ffffff"></path><g id="SvgjsG1468"><text id="SvgjsText1469" font-family="微软雅黑" text-anchor="middle" font-size="13px" width="124px" fill="#323232" font-weight="400" align="middle" anchor="middle" family="微软雅黑" size="13px" weight="400" font-style="" opacity="1" y="24.39" transform="rotate(0)"><tspan id="SvgjsTspan1470" dy="16" x="72"><tspan id="SvgjsTspan1471" style="text-decoration:;">用户在群中？</tspan></tspan></text></g></g><g id="SvgjsG1472" transform="translate(361.953125,438)"><path id="SvgjsPath1473" d="M 0 34L 71.609375 0L 143.21875 34L 71.609375 68Z" stroke="rgba(50,50,50,1)" stroke-width="2" fill-opacity="1" fill="#ffffff"></path><g id="SvgjsG1474"><text id="SvgjsText1475" font-family="微软雅黑" text-anchor="middle" font-size="13px" width="124px" fill="#323232" font-weight="400" align="middle" anchor="middle" family="微软雅黑" size="13px" weight="400" font-style="" opacity="1" y="24.39" transform="rotate(0)"><tspan id="SvgjsTspan1476" dy="16" x="72"><tspan id="SvgjsTspan1477" style="text-decoration:;">用户在群中？</tspan></tspan></text></g></g><g id="SvgjsG1478" transform="translate(361.953125,324)"><path id="SvgjsPath1479" d="M 0 34L 71.609375 0L 143.21875 34L 71.609375 68Z" stroke="rgba(50,50,50,1)" stroke-width="2" fill-opacity="1" fill="#ffffff"></path><g id="SvgjsG1480"><text id="SvgjsText1481" font-family="微软雅黑" text-anchor="middle" font-size="13px" width="124px" fill="#323232" font-weight="400" align="middle" anchor="middle" family="微软雅黑" size="13px" weight="400" font-style="" opacity="1" y="24.39" transform="rotate(0)"><tspan id="SvgjsTspan1482" dy="16" x="72"><tspan id="SvgjsTspan1483" style="text-decoration:;">群名存在？</tspan></tspan></text></g></g><g id="SvgjsG1484" transform="translate(361.953125,223)"><path id="SvgjsPath1485" d="M 0 34L 71.609375 0L 143.21875 34L 71.609375 68Z" stroke="rgba(50,50,50,1)" stroke-width="2" fill-opacity="1" fill="#ffffff"></path><g id="SvgjsG1486"><text id="SvgjsText1487" font-family="微软雅黑" text-anchor="middle" font-size="13px" width="124px" fill="#323232" font-weight="400" align="middle" anchor="middle" family="微软雅黑" size="13px" weight="400" font-style="" opacity="1" y="24.39" transform="rotate(0)"><tspan id="SvgjsTspan1488" dy="16" x="72"><tspan id="SvgjsTspan1489" style="text-decoration:;">用户加群数已满？</tspan></tspan></text></g></g><g id="SvgjsG1490" transform="translate(670.953125,562)"><path id="SvgjsPath1491" d="M 0 0L 111 0L 111 33L 0 33Z" stroke="rgba(50,50,50,1)" stroke-width="2" fill-opacity="1" fill="#ffffff"></path><g id="SvgjsG1492"><text id="SvgjsText1493" font-family="微软雅黑" text-anchor="middle" font-size="13px" width="91px" fill="#323232" font-weight="400" align="middle" anchor="middle" family="微软雅黑" size="13px" weight="400" font-style="" opacity="1" y="6.55" transform="rotate(0)"><tspan id="SvgjsTspan1494" dy="16" x="55.5"><tspan id="SvgjsTspan1495" style="text-decoration:;">全体群员退群</tspan></tspan></text></g></g><g id="SvgjsG1496" transform="translate(670.953125,664)"><path id="SvgjsPath1497" d="M 0 0L 111 0L 111 33L 0 33Z" stroke="rgba(50,50,50,1)" stroke-width="2" fill-opacity="1" fill="#ffffff"></path><g id="SvgjsG1498"><text id="SvgjsText1499" font-family="微软雅黑" text-anchor="middle" font-size="13px" width="91px" fill="#323232" font-weight="400" align="middle" anchor="middle" family="微软雅黑" size="13px" weight="400" font-style="" opacity="1" y="-1.45" transform="rotate(0)"><tspan id="SvgjsTspan1500" dy="16" x="55.5"><tspan id="SvgjsTspan1501" style="text-decoration:;">更新用户信息和</tspan></tspan><tspan id="SvgjsTspan1502" dy="16" x="55.5"><tspan id="SvgjsTspan1503" style="text-decoration:;">群聊信息</tspan></tspan></text></g></g><g id="SvgjsG1504" transform="translate(378.0625,655)"><path id="SvgjsPath1505" d="M 0 0L 111 0L 111 33L 0 33Z" stroke="rgba(50,50,50,1)" stroke-width="2" fill-opacity="1" fill="#ffffff"></path><g id="SvgjsG1506"><text id="SvgjsText1507" font-family="微软雅黑" text-anchor="middle" font-size="13px" width="91px" fill="#323232" font-weight="400" align="middle" anchor="middle" family="微软雅黑" size="13px" weight="400" font-style="" opacity="1" y="-1.45" transform="rotate(0)"><tspan id="SvgjsTspan1508" dy="16" x="55.5"><tspan id="SvgjsTspan1509" style="text-decoration:;">更新用户信息和</tspan></tspan><tspan id="SvgjsTspan1510" dy="16" x="55.5"><tspan id="SvgjsTspan1511" style="text-decoration:;">群聊信息</tspan></tspan></text></g></g><g id="SvgjsG1512" transform="translate(378.0625,732.5)"><path id="SvgjsPath1513" d="M 0 0L 111 0L 111 33L 0 33Z" stroke="rgba(50,50,50,1)" stroke-width="2" fill-opacity="1" fill="#ffffff"></path><g id="SvgjsG1514"><text id="SvgjsText1515" font-family="微软雅黑" text-anchor="middle" font-size="13px" width="91px" fill="#323232" font-weight="400" align="middle" anchor="middle" family="微软雅黑" size="13px" weight="400" font-style="" opacity="1" y="6.55" transform="rotate(0)"><tspan id="SvgjsTspan1516" dy="16" x="55.5"><tspan id="SvgjsTspan1517" style="text-decoration:;">加群成功</tspan></tspan></text></g></g><g id="SvgjsG1518"><path id="SvgjsPath1519" d="M433.5625 184L433.5625 203.5L433.5625 203.5L433.5625 223" stroke="#323232" stroke-width="2" fill="none" marker-end="url(#SvgjsMarker1520)"></path></g><g id="SvgjsG1522"><path id="SvgjsPath1523" d="M433.5625 291L433.5625 307.5L433.5625 307.5L433.5625 324" stroke="#323232" stroke-width="2" fill="none" marker-end="url(#SvgjsMarker1524)"></path></g><g id="SvgjsG1526"><path id="SvgjsPath1527" d="M433.5625 392L433.5625 415L433.5625 415L433.5625 438" stroke="#323232" stroke-width="2" fill="none" marker-end="url(#SvgjsMarker1528)"></path></g><g id="SvgjsG1530"><path id="SvgjsPath1531" d="M433.5625 688L433.5625 710.25L433.5625 710.25L433.5625 732.5" stroke="#323232" stroke-width="2" fill="none" marker-end="url(#SvgjsMarker1532)"></path></g><g id="SvgjsG1534" transform="translate(526,732.5)"><path id="SvgjsPath1535" d="M 0 0L 111 0L 111 33L 0 33Z" stroke="rgba(50,50,50,1)" stroke-width="2" fill-opacity="1" fill="#ffffff"></path><g id="SvgjsG1536"><text id="SvgjsText1537" font-family="微软雅黑" text-anchor="middle" font-size="13px" width="91px" fill="#323232" font-weight="400" align="middle" anchor="middle" family="微软雅黑" size="13px" weight="400" font-style="" opacity="1" y="6.55" transform="rotate(0)"><tspan id="SvgjsTspan1538" dy="16" x="55.5"><tspan id="SvgjsTspan1539" style="text-decoration:;">加群失败</tspan></tspan></text></g></g><g id="SvgjsG1540" transform="translate(670.953125,732.5)"><path id="SvgjsPath1541" d="M 0 0L 111 0L 111 33L 0 33Z" stroke="rgba(50,50,50,1)" stroke-width="2" fill-opacity="1" fill="#ffffff"></path><g id="SvgjsG1542"><text id="SvgjsText1543" font-family="微软雅黑" text-anchor="middle" font-size="13px" width="91px" fill="#323232" font-weight="400" align="middle" anchor="middle" family="微软雅黑" size="13px" weight="400" font-style="" opacity="1" y="6.55" transform="rotate(0)"><tspan id="SvgjsTspan1544" dy="16" x="55.5"><tspan id="SvgjsTspan1545" style="text-decoration:;">退群成功</tspan></tspan></text></g></g><g id="SvgjsG1546"><path id="SvgjsPath1547" d="M148.953125 438L80.5 438L80.5 595.5" stroke="#323232" stroke-width="2" fill="none" marker-end="url(#SvgjsMarker1548)"></path></g><g id="SvgjsG1550"><path id="SvgjsPath1551" d="M148.953125 337L80.5 337L80.5 595.5" stroke="#323232" stroke-width="2" fill="none" marker-end="url(#SvgjsMarker1552)"></path></g><g id="SvgjsG1554"><path id="SvgjsPath1555" d="M148.953125 230L80.5 230L80.5 595.5" stroke="#323232" stroke-width="2" fill="none" marker-end="url(#SvgjsMarker1556)"></path></g><g id="SvgjsG1558"><path id="SvgjsPath1559" d="M505.171875 472L581.5 472L581.5 732.5" stroke="#323232" stroke-width="2" fill="none" marker-end="url(#SvgjsMarker1560)"></path></g><g id="SvgjsG1562"><path id="SvgjsPath1563" d="M505.171875 358L581.5 358L581.5 732.5" stroke="#323232" stroke-width="2" fill="none" marker-end="url(#SvgjsMarker1564)"></path></g><g id="SvgjsG1566"><path id="SvgjsPath1567" d="M505.171875 257L581.5 257L581.5 732.5" stroke="#323232" stroke-width="2" fill="none" marker-end="url(#SvgjsMarker1568)"></path></g><g id="SvgjsG1570"><path id="SvgjsPath1571" d="M361.953125 150L220.5625 150L220.5625 196" stroke="#323232" stroke-width="2" fill="none" marker-end="url(#SvgjsMarker1572)"></path></g><g id="SvgjsG1574" transform="translate(829.34375,562)"><path id="SvgjsPath1575" d="M 0 0L 111 0L 111 33L 0 33Z" stroke="rgba(50,50,50,1)" stroke-width="2" fill-opacity="1" fill="#ffffff"></path><g id="SvgjsG1576"><text id="SvgjsText1577" font-family="微软雅黑" text-anchor="middle" font-size="13px" width="91px" fill="#323232" font-weight="400" align="middle" anchor="middle" family="微软雅黑" size="13px" weight="400" font-style="" opacity="1" y="6.55" transform="rotate(0)"><tspan id="SvgjsTspan1578" dy="16" x="55.5"><tspan id="SvgjsTspan1579" style="text-decoration:;">用户自己退群</tspan></tspan></text></g></g><g id="SvgjsG1580" transform="translate(834.765625,405)"><path id="SvgjsPath1581" d="M 0 0L 94.15625 0L 94.15625 33L 0 33Z" stroke="rgba(50,50,50,1)" stroke-width="2" fill-opacity="1" fill="#ffffff"></path><g id="SvgjsG1582"><text id="SvgjsText1583" font-family="微软雅黑" text-anchor="middle" font-size="13px" width="75px" fill="#323232" font-weight="400" align="middle" anchor="middle" family="微软雅黑" size="13px" weight="400" font-style="" opacity="1" y="6.55" transform="rotate(0)"><tspan id="SvgjsTspan1584" dy="16" x="47.5"><tspan id="SvgjsTspan1585" style="text-decoration:;">退群失败</tspan></tspan></text></g></g><g id="SvgjsG1586"><path id="SvgjsPath1587" d="M726.453125 395L726.453125 422L726.453125 422L726.453125 449" stroke="#323232" stroke-width="2" fill="none" marker-end="url(#SvgjsMarker1588)"></path></g><g id="SvgjsG1590"><path id="SvgjsPath1591" d="M726.453125 517L726.453125 539.5L726.453125 539.5L726.453125 562" stroke="#323232" stroke-width="2" fill="none" marker-end="url(#SvgjsMarker1592)"></path></g><g id="SvgjsG1594"><path id="SvgjsPath1595" d="M798.0625 483L884.84375 483L884.84375 562" stroke="#323232" stroke-width="2" fill="none" marker-end="url(#SvgjsMarker1596)"></path></g><g id="SvgjsG1598"><path id="SvgjsPath1599" d="M726.453125 595L726.453125 629.5L726.453125 629.5L726.453125 664" stroke="#323232" stroke-width="2" fill="none" marker-end="url(#SvgjsMarker1600)"></path></g><g id="SvgjsG1602"><path id="SvgjsPath1603" d="M884.84375 595L884.84375 629.5L726.453125 629.5L726.453125 664" stroke="#323232" stroke-width="2" fill="none" marker-end="url(#SvgjsMarker1604)"></path></g><g id="SvgjsG1606"><path id="SvgjsPath1607" d="M726.453125 697L726.453125 714.75L726.453125 714.75L726.453125 732.5" stroke="#323232" stroke-width="2" fill="none" marker-end="url(#SvgjsMarker1608)"></path></g><g id="SvgjsG1610" transform="translate(479.0625,86)"><path id="SvgjsPath1611" d="M 0 0L 120 0L 120 40L 0 40Z" stroke="none" fill="none"></path><g id="SvgjsG1612"><text id="SvgjsText1613" font-family="微软雅黑" text-anchor="middle" font-size="13px" width="120px" fill="#323232" font-weight="400" align="middle" anchor="middle" family="微软雅黑" size="13px" weight="400" font-style="" opacity="1" y="10.05" transform="rotate(0)"><tspan id="SvgjsTspan1614" dy="16" x="60"><tspan id="SvgjsTspan1615" style="text-decoration:;">退出</tspan></tspan></text></g></g><g id="SvgjsG1616" transform="translate(392.0625,176)"><path id="SvgjsPath1617" d="M 0 0L 120 0L 120 40L 0 40Z" stroke="none" fill="none"></path><g id="SvgjsG1618"><text id="SvgjsText1619" font-family="微软雅黑" text-anchor="middle" font-size="13px" width="120px" fill="#323232" font-weight="400" align="middle" anchor="middle" family="微软雅黑" size="13px" weight="400" font-style="" opacity="1" y="10.05" transform="rotate(0)"><tspan id="SvgjsTspan1620" dy="16" x="60"><tspan id="SvgjsTspan1621" style="text-decoration:;">加入</tspan></tspan></text></g></g><g id="SvgjsG1622" transform="translate(749.0625,324)"><path id="SvgjsPath1623" d="M 0 0L 120 0L 120 40L 0 40Z" stroke="none" fill="none"></path><g id="SvgjsG1624"><text id="SvgjsText1625" font-family="微软雅黑" text-anchor="middle" font-size="13px" width="120px" fill="#323232" font-weight="400" align="middle" anchor="middle" family="微软雅黑" size="13px" weight="400" font-style="" opacity="1" y="10.05" transform="rotate(0)"><tspan id="SvgjsTspan1626" dy="16" x="60"><tspan id="SvgjsTspan1627" style="text-decoration:;">N</tspan></tspan></text></g></g><g id="SvgjsG1628" transform="translate(172.171875,364)"><path id="SvgjsPath1629" d="M 0 0L 120 0L 120 40L 0 40Z" stroke="none" fill="none"></path><g id="SvgjsG1630"><text id="SvgjsText1631" font-family="微软雅黑" text-anchor="middle" font-size="13px" width="120px" fill="#323232" font-weight="400" align="middle" anchor="middle" family="微软雅黑" size="13px" weight="400" font-style="" opacity="1" y="10.05" transform="rotate(0)"><tspan id="SvgjsTspan1632" dy="16" x="60"><tspan id="SvgjsTspan1633" style="text-decoration:;">N</tspan></tspan></text></g></g><g id="SvgjsG1634" transform="translate(172.171875,267.5)"><path id="SvgjsPath1635" d="M 0 0L 120 0L 120 40L 0 40Z" stroke="none" fill="none"></path><g id="SvgjsG1636"><text id="SvgjsText1637" font-family="微软雅黑" text-anchor="middle" font-size="13px" width="120px" fill="#323232" font-weight="400" align="middle" anchor="middle" family="微软雅黑" size="13px" weight="400" font-style="" opacity="1" y="10.05" transform="rotate(0)"><tspan id="SvgjsTspan1638" dy="16" x="60"><tspan id="SvgjsTspan1639" style="text-decoration:;">N</tspan></tspan></text></g></g><g id="SvgjsG1640" transform="translate(62.171875,196)"><path id="SvgjsPath1641" d="M 0 0L 120 0L 120 40L 0 40Z" stroke="none" fill="none"></path><g id="SvgjsG1642"><text id="SvgjsText1643" font-family="微软雅黑" text-anchor="middle" font-size="13px" width="120px" fill="#323232" font-weight="400" align="middle" anchor="middle" family="微软雅黑" size="13px" weight="400" font-style="" opacity="1" y="10.05" transform="rotate(0)"><tspan id="SvgjsTspan1644" dy="16" x="60"><tspan id="SvgjsTspan1645" style="text-decoration:;">Y</tspan></tspan></text></g></g><g id="SvgjsG1646" transform="translate(467.0625,436)"><path id="SvgjsPath1647" d="M 0 0L 120 0L 120 40L 0 40Z" stroke="none" fill="none"></path><g id="SvgjsG1648"><text id="SvgjsText1649" font-family="微软雅黑" text-anchor="middle" font-size="13px" width="120px" fill="#323232" font-weight="400" align="middle" anchor="middle" family="微软雅黑" size="13px" weight="400" font-style="" opacity="1" y="10.05" transform="rotate(0)"><tspan id="SvgjsTspan1650" dy="16" x="60"><tspan id="SvgjsTspan1651" style="text-decoration:;">Y</tspan></tspan></text></g></g><g id="SvgjsG1652" transform="translate(467.0625,223)"><path id="SvgjsPath1653" d="M 0 0L 120 0L 120 40L 0 40Z" stroke="none" fill="none"></path><g id="SvgjsG1654"><text id="SvgjsText1655" font-family="微软雅黑" text-anchor="middle" font-size="13px" width="120px" fill="#323232" font-weight="400" align="middle" anchor="middle" family="微软雅黑" size="13px" weight="400" font-style="" opacity="1" y="10.05" transform="rotate(0)"><tspan id="SvgjsTspan1656" dy="16" x="60"><tspan id="SvgjsTspan1657" style="text-decoration:;">Y</tspan></tspan></text></g></g><g id="SvgjsG1658" transform="translate(385.171875,387)"><path id="SvgjsPath1659" d="M 0 0L 120 0L 120 40L 0 40Z" stroke="none" fill="none"></path><g id="SvgjsG1660"><text id="SvgjsText1661" font-family="微软雅黑" text-anchor="middle" font-size="13px" width="120px" fill="#323232" font-weight="400" align="middle" anchor="middle" family="微软雅黑" size="13px" weight="400" font-style="" opacity="1" y="10.05" transform="rotate(0)"><tspan id="SvgjsTspan1662" dy="16" x="60"><tspan id="SvgjsTspan1663" style="text-decoration:;">Y</tspan></tspan></text></g></g><g id="SvgjsG1664" transform="translate(169.0625,476)"><path id="SvgjsPath1665" d="M 0 0L 120 0L 120 40L 0 40Z" stroke="none" fill="none"></path><g id="SvgjsG1666"><text id="SvgjsText1667" font-family="微软雅黑" text-anchor="middle" font-size="13px" width="120px" fill="#323232" font-weight="400" align="middle" anchor="middle" family="微软雅黑" size="13px" weight="400" font-style="" opacity="1" y="10.05" transform="rotate(0)"><tspan id="SvgjsTspan1668" dy="16" x="60"><tspan id="SvgjsTspan1669" style="text-decoration:;">Y</tspan></tspan></text></g></g><g id="SvgjsG1670" transform="translate(62.171875,404)"><path id="SvgjsPath1671" d="M 0 0L 120 0L 120 40L 0 40Z" stroke="none" fill="none"></path><g id="SvgjsG1672"><text id="SvgjsText1673" font-family="微软雅黑" text-anchor="middle" font-size="13px" width="120px" fill="#323232" font-weight="400" align="middle" anchor="middle" family="微软雅黑" size="13px" weight="400" font-style="" opacity="1" y="10.05" transform="rotate(0)"><tspan id="SvgjsTspan1674" dy="16" x="60"><tspan id="SvgjsTspan1675" style="text-decoration:;">N</tspan></tspan></text></g></g><g id="SvgjsG1676" transform="translate(385.171875,284)"><path id="SvgjsPath1677" d="M 0 0L 120 0L 120 40L 0 40Z" stroke="none" fill="none"></path><g id="SvgjsG1678"><text id="SvgjsText1679" font-family="微软雅黑" text-anchor="middle" font-size="13px" width="120px" fill="#323232" font-weight="400" align="middle" anchor="middle" family="微软雅黑" size="13px" weight="400" font-style="" opacity="1" y="10.05" transform="rotate(0)"><tspan id="SvgjsTspan1680" dy="16" x="60"><tspan id="SvgjsTspan1681" style="text-decoration:;">N</tspan></tspan></text></g></g><g id="SvgjsG1682" transform="translate(467.0625,324)"><path id="SvgjsPath1683" d="M 0 0L 120 0L 120 40L 0 40Z" stroke="none" fill="none"></path><g id="SvgjsG1684"><text id="SvgjsText1685" font-family="微软雅黑" text-anchor="middle" font-size="13px" width="120px" fill="#323232" font-weight="400" align="middle" anchor="middle" family="微软雅黑" size="13px" weight="400" font-style="" opacity="1" y="10.05" transform="rotate(0)"><tspan id="SvgjsTspan1686" dy="16" x="60"><tspan id="SvgjsTspan1687" style="text-decoration:;">N</tspan></tspan></text></g></g><g id="SvgjsG1688" transform="translate(385.171875,506.5)"><path id="SvgjsPath1689" d="M 0 0L 120 0L 120 40L 0 40Z" stroke="none" fill="none"></path><g id="SvgjsG1690"><text id="SvgjsText1691" font-family="微软雅黑" text-anchor="middle" font-size="13px" width="120px" fill="#323232" font-weight="400" align="middle" anchor="middle" family="微软雅黑" size="13px" weight="400" font-style="" opacity="1" y="10.05" transform="rotate(0)"><tspan id="SvgjsTspan1692" dy="16" x="60"><tspan id="SvgjsTspan1693" style="text-decoration:;">N</tspan></tspan></text></g></g><g id="SvgjsG1694" transform="translate(680.5,398)"><path id="SvgjsPath1695" d="M 0 0L 120 0L 120 40L 0 40Z" stroke="none" fill="none"></path><g id="SvgjsG1696"><text id="SvgjsText1697" font-family="微软雅黑" text-anchor="middle" font-size="13px" width="120px" fill="#323232" font-weight="400" align="middle" anchor="middle" family="微软雅黑" size="13px" weight="400" font-style="" opacity="1" y="10.05" transform="rotate(0)"><tspan id="SvgjsTspan1698" dy="16" x="60"><tspan id="SvgjsTspan1699" style="text-decoration:;">Y</tspan></tspan></text></g></g><g id="SvgjsG1700" transform="translate(680.5,514)"><path id="SvgjsPath1701" d="M 0 0L 120 0L 120 40L 0 40Z" stroke="none" fill="none"></path><g id="SvgjsG1702"><text id="SvgjsText1703" font-family="微软雅黑" text-anchor="middle" font-size="13px" width="120px" fill="#323232" font-weight="400" align="middle" anchor="middle" family="微软雅黑" size="13px" weight="400" font-style="" opacity="1" y="10.05" transform="rotate(0)"><tspan id="SvgjsTspan1704" dy="16" x="60"><tspan id="SvgjsTspan1705" style="text-decoration:;">Y</tspan></tspan></text></g></g><g id="SvgjsG1706" transform="translate(749.0625,447)"><path id="SvgjsPath1707" d="M 0 0L 120 0L 120 40L 0 40Z" stroke="none" fill="none"></path><g id="SvgjsG1708"><text id="SvgjsText1709" font-family="微软雅黑" text-anchor="middle" font-size="13px" width="120px" fill="#323232" font-weight="400" align="middle" anchor="middle" family="微软雅黑" size="13px" weight="400" font-style="" opacity="1" y="10.05" transform="rotate(0)"><tspan id="SvgjsTspan1710" dy="16" x="60"><tspan id="SvgjsTspan1711" style="text-decoration:;">N</tspan></tspan></text></g></g><g id="SvgjsG1712"><path id="SvgjsPath1713" d="M220.5625 264L220.5625 283.5L220.5625 283.5L220.5625 303" stroke="#323232" stroke-width="2" fill="none" marker-end="url(#SvgjsMarker1714)"></path></g><g id="SvgjsG1716" transform="translate(361.953125,546.5)"><path id="SvgjsPath1717" d="M 0 34L 71.609375 0L 143.21875 34L 71.609375 68Z" stroke="rgba(50,50,50,1)" stroke-width="2" fill-opacity="1" fill="#ffffff"></path><g id="SvgjsG1718"><text id="SvgjsText1719" font-family="微软雅黑" text-anchor="middle" font-size="13px" width="124px" fill="#323232" font-weight="400" align="middle" anchor="middle" family="微软雅黑" size="13px" weight="400" font-style="" opacity="1" y="24.39" transform="rotate(0)"><tspan id="SvgjsTspan1720" dy="16" x="72"><tspan id="SvgjsTspan1721" style="text-decoration:;">群成员已满？</tspan></tspan></text></g></g><g id="SvgjsG1722"><path id="SvgjsPath1723" d="M433.5625 506L433.5625 526.25L433.5625 526.25L433.5625 546.5" stroke="#323232" stroke-width="2" fill="none" marker-end="url(#SvgjsMarker1724)"></path></g><g id="SvgjsG1726"><path id="SvgjsPath1727" d="M433.5625 614.5L433.5625 634.75L433.5625 634.75L433.5625 655" stroke="#323232" stroke-width="2" fill="none" marker-end="url(#SvgjsMarker1728)"></path></g><g id="SvgjsG1730" transform="translate(385.171875,608.5)"><path id="SvgjsPath1731" d="M 0 0L 120 0L 120 40L 0 40Z" stroke="none" fill="none"></path><g id="SvgjsG1732"><text id="SvgjsText1733" font-family="微软雅黑" text-anchor="middle" font-size="13px" width="120px" fill="#323232" font-weight="400" align="middle" anchor="middle" family="微软雅黑" size="13px" weight="400" font-style="" opacity="1" y="10.05" transform="rotate(0)"><tspan id="SvgjsTspan1734" dy="16" x="60"><tspan id="SvgjsTspan1735" style="text-decoration:;">N</tspan></tspan></text></g></g><g id="SvgjsG1736"><path id="SvgjsPath1737" d="M505.171875 580.5L581.5 580.5L581.5 732.5" stroke="#323232" stroke-width="2" fill="none" marker-end="url(#SvgjsMarker1738)"></path></g><g id="SvgjsG1740" transform="translate(467.0625,546.5)"><path id="SvgjsPath1741" d="M 0 0L 120 0L 120 40L 0 40Z" stroke="none" fill="none"></path><g id="SvgjsG1742"><text id="SvgjsText1743" font-family="微软雅黑" text-anchor="middle" font-size="13px" width="120px" fill="#323232" font-weight="400" align="middle" anchor="middle" family="微软雅黑" size="13px" weight="400" font-style="" opacity="1" y="10.05" transform="rotate(0)"><tspan id="SvgjsTspan1744" dy="16" x="60"><tspan id="SvgjsTspan1745" style="text-decoration:;">Y</tspan></tspan></text></g></g><g id="SvgjsG1746" transform="translate(654.84375,219)"><path id="SvgjsPath1747" d="M 0 34L 71.609375 0L 143.21875 34L 71.609375 68Z" stroke="rgba(50,50,50,1)" stroke-width="2" fill-opacity="1" fill="#ffffff"></path><g id="SvgjsG1748"><text id="SvgjsText1749" font-family="微软雅黑" text-anchor="middle" font-size="13px" width="124px" fill="#323232" font-weight="400" align="middle" anchor="middle" family="微软雅黑" size="13px" weight="400" font-style="" opacity="1" y="24.39" transform="rotate(0)"><tspan id="SvgjsTspan1750" dy="16" x="72"><tspan id="SvgjsTspan1751" style="text-decoration:;">群名存在？</tspan></tspan></text></g></g><g id="SvgjsG1752"><path id="SvgjsPath1753" d="M505.171875 150L726.453125 150L726.453125 219" stroke="#323232" stroke-width="2" fill="none" marker-end="url(#SvgjsMarker1754)"></path></g><g id="SvgjsG1756"><path id="SvgjsPath1757" d="M726.453125 287L726.453125 307L726.453125 307L726.453125 327" stroke="#323232" stroke-width="2" fill="none" marker-end="url(#SvgjsMarker1758)"></path></g><g id="SvgjsG1760" transform="translate(749.0625,223)"><path id="SvgjsPath1761" d="M 0 0L 120 0L 120 40L 0 40Z" stroke="none" fill="none"></path><g id="SvgjsG1762"><text id="SvgjsText1763" font-family="微软雅黑" text-anchor="middle" font-size="13px" width="120px" fill="#323232" font-weight="400" align="middle" anchor="middle" family="微软雅黑" size="13px" weight="400" font-style="" opacity="1" y="10.05" transform="rotate(0)"><tspan id="SvgjsTspan1764" dy="16" x="60"><tspan id="SvgjsTspan1765" style="text-decoration:;">N</tspan></tspan></text></g></g><g id="SvgjsG1766" transform="translate(680.5,284)"><path id="SvgjsPath1767" d="M 0 0L 120 0L 120 40L 0 40Z" stroke="none" fill="none"></path><g id="SvgjsG1768"><text id="SvgjsText1769" font-family="微软雅黑" text-anchor="middle" font-size="13px" width="120px" fill="#323232" font-weight="400" align="middle" anchor="middle" family="微软雅黑" size="13px" weight="400" font-style="" opacity="1" y="10.05" transform="rotate(0)"><tspan id="SvgjsTspan1770" dy="16" x="60"><tspan id="SvgjsTspan1771" style="text-decoration:;">Y</tspan></tspan></text></g></g><g id="SvgjsG1772"><path id="SvgjsPath1773" d="M798.0625 253L881.84375 253L881.84375 405" stroke="#323232" stroke-width="2" fill="none" marker-end="url(#SvgjsMarker1774)"></path></g><g id="SvgjsG1776"><path id="SvgjsPath1777" d="M798.0625 361L881.84375 361L881.84375 405" stroke="#323232" stroke-width="2" fill="none" marker-end="url(#SvgjsMarker1778)"></path></g></svg>