<svg id="SvgjsSvg1006" width="965.34375" height="690.5" xmlns="http://www.w3.org/2000/svg" version="1.1" xmlns:xlink="http://www.w3.org/1999/xlink" xmlns:svgjs="http://svgjs.com/svgjs"><defs id="SvgjsDefs1007"><marker id="SvgjsMarker1072" markerWidth="16" markerHeight="12" refX="16" refY="6" viewBox="0 0 16 12" orient="auto" markerUnits="userSpaceOnUse" stroke-dasharray="0,0"><path id="SvgjsPath1073" d="M0,2 L14,6 L0,11 L0,2" fill="#323232" stroke="#323232" stroke-width="2"></path></marker><marker id="SvgjsMarker1076" markerWidth="16" markerHeight="12" refX="16" refY="6" viewBox="0 0 16 12" orient="auto" markerUnits="userSpaceOnUse" stroke-dasharray="0,0"><path id="SvgjsPath1077" d="M0,2 L14,6 L0,11 L0,2" fill="#323232" stroke="#323232" stroke-width="2"></path></marker><marker id="SvgjsMarker1080" markerWidth="16" markerHeight="12" refX="16" refY="6" viewBox="0 0 16 12" orient="auto" markerUnits="userSpaceOnUse" stroke-dasharray="0,0"><path id="SvgjsPath1081" d="M0,2 L14,6 L0,11 L0,2" fill="#323232" stroke="#323232" stroke-width="2"></path></marker><marker id="SvgjsMarker1084" markerWidth="16" markerHeight="12" refX="16" refY="6" viewBox="0 0 16 12" orient="auto" markerUnits="userSpaceOnUse" stroke-dasharray="0,0"><path id="SvgjsPath1085" d="M0,2 L14,6 L0,11 L0,2" fill="#323232" stroke="#323232" stroke-width="2"></path></marker><marker id="SvgjsMarker1146" markerWidth="16" markerHeight="12" refX="16" refY="6" viewBox="0 0 16 12" orient="auto" markerUnits="userSpaceOnUse" stroke-dasharray="0,0"><path id="SvgjsPath1147" d="M0,2 L14,6 L0,11 L0,2" fill="#323232" stroke="#323232" stroke-width="2"></path></marker><marker id="SvgjsMarker1150" markerWidth="16" markerHeight="12" refX="16" refY="6" viewBox="0 0 16 12" orient="auto" markerUnits="userSpaceOnUse" stroke-dasharray="0,0"><path id="SvgjsPath1151" d="M0,2 L14,6 L0,11 L0,2" fill="#323232" stroke="#323232" stroke-width="2"></path></marker><marker id="SvgjsMarker1154" markerWidth="16" markerHeight="12" refX="16" refY="6" viewBox="0 0 16 12" orient="auto" markerUnits="userSpaceOnUse" stroke-dasharray="0,0"><path id="SvgjsPath1155" d="M0,2 L14,6 L0,11 L0,2" fill="#323232" stroke="#323232" stroke-width="2"></path></marker><marker id="SvgjsMarker1158" markerWidth="16" markerHeight="12" refX="16" refY="6" viewBox="0 0 16 12" orient="auto" markerUnits="userSpaceOnUse" stroke-dasharray="0,0"><path id="SvgjsPath1159" d="M0,2 L14,6 L0,11 L0,2" fill="#323232" stroke="#323232" stroke-width="2"></path></marker><marker id="SvgjsMarker1162" markerWidth="16" markerHeight="12" refX="16" refY="6" viewBox="0 0 16 12" orient="auto" markerUnits="userSpaceOnUse" stroke-dasharray="0,0"><path id="SvgjsPath1163" d="M0,2 L14,6 L0,11 L0,2" fill="#323232" stroke="#323232" stroke-width="2"></path></marker><marker id="SvgjsMarker1178" markerWidth="16" markerHeight="12" refX="16" refY="6" viewBox="0 0 16 12" orient="auto" markerUnits="userSpaceOnUse" stroke-dasharray="0,0"><path id="SvgjsPath1179" d="M0,2 L14,6 L0,11 L0,2" fill="#323232" stroke="#323232" stroke-width="2"></path></marker><marker id="SvgjsMarker1182" markerWidth="16" markerHeight="12" refX="16" refY="6" viewBox="0 0 16 12" orient="auto" markerUnits="userSpaceOnUse" stroke-dasharray="0,0"><path id="SvgjsPath1183" d="M0,2 L14,6 L0,11 L0,2" fill="#323232" stroke="#323232" stroke-width="2"></path></marker><marker id="SvgjsMarker1186" markerWidth="16" markerHeight="12" refX="16" refY="6" viewBox="0 0 16 12" orient="auto" markerUnits="userSpaceOnUse" stroke-dasharray="0,0"><path id="SvgjsPath1187" d="M0,2 L14,6 L0,11 L0,2" fill="#323232" stroke="#323232" stroke-width="2"></path></marker><marker id="SvgjsMarker1190" markerWidth="16" markerHeight="12" refX="16" refY="6" viewBox="0 0 16 12" orient="auto" markerUnits="userSpaceOnUse" stroke-dasharray="0,0"><path id="SvgjsPath1191" d="M0,2 L14,6 L0,11 L0,2" fill="#323232" stroke="#323232" stroke-width="2"></path></marker><marker id="SvgjsMarker1194" markerWidth="16" markerHeight="12" refX="16" refY="6" viewBox="0 0 16 12" orient="auto" markerUnits="userSpaceOnUse" stroke-dasharray="0,0"><path id="SvgjsPath1195" d="M0,2 L14,6 L0,11 L0,2" fill="#323232" stroke="#323232" stroke-width="2"></path></marker><marker id="SvgjsMarker1198" markerWidth="16" markerHeight="12" refX="16" refY="6" viewBox="0 0 16 12" orient="auto" markerUnits="userSpaceOnUse" stroke-dasharray="0,0"><path id="SvgjsPath1199" d="M0,2 L14,6 L0,11 L0,2" fill="#323232" stroke="#323232" stroke-width="2"></path></marker><marker id="SvgjsMarker1202" markerWidth="16" markerHeight="12" refX="16" refY="6" viewBox="0 0 16 12" orient="auto" markerUnits="userSpaceOnUse" stroke-dasharray="0,0"><path id="SvgjsPath1203" d="M0,2 L14,6 L0,11 L0,2" fill="#323232" stroke="#323232" stroke-width="2"></path></marker><marker id="SvgjsMarker1218" markerWidth="16" markerHeight="12" refX="16" refY="6" viewBox="0 0 16 12" orient="auto" markerUnits="userSpaceOnUse" stroke-dasharray="0,0"><path id="SvgjsPath1219" d="M0,2 L14,6 L0,11 L0,2" fill="#323232" stroke="#323232" stroke-width="2"></path></marker><marker id="SvgjsMarker1222" markerWidth="16" markerHeight="12" refX="16" refY="6" viewBox="0 0 16 12" orient="auto" markerUnits="userSpaceOnUse" stroke-dasharray="0,0"><path id="SvgjsPath1223" d="M0,2 L14,6 L0,11 L0,2" fill="#323232" stroke="#323232" stroke-width="2"></path></marker><marker id="SvgjsMarker1226" markerWidth="16" markerHeight="12" refX="16" refY="6" viewBox="0 0 16 12" orient="auto" markerUnits="userSpaceOnUse" stroke-dasharray="0,0"><path id="SvgjsPath1227" d="M0,2 L14,6 L0,11 L0,2" fill="#323232" stroke="#323232" stroke-width="2"></path></marker><marker id="SvgjsMarker1230" markerWidth="16" markerHeight="12" refX="16" refY="6" viewBox="0 0 16 12" orient="auto" markerUnits="userSpaceOnUse" stroke-dasharray="0,0"><path id="SvgjsPath1231" d="M0,2 L14,6 L0,11 L0,2" fill="#323232" stroke="#323232" stroke-width="2"></path></marker><marker id="SvgjsMarker1234" markerWidth="16" markerHeight="12" refX="16" refY="6" viewBox="0 0 16 12" orient="auto" markerUnits="userSpaceOnUse" stroke-dasharray="0,0"><path id="SvgjsPath1235" d="M0,2 L14,6 L0,11 L0,2" fill="#323232" stroke="#323232" stroke-width="2"></path></marker><marker id="SvgjsMarker1238" markerWidth="16" markerHeight="12" refX="16" refY="6" viewBox="0 0 16 12" orient="auto" markerUnits="userSpaceOnUse" stroke-dasharray="0,0"><path id="SvgjsPath1239" d="M0,2 L14,6 L0,11 L0,2" fill="#323232" stroke="#323232" stroke-width="2"></path></marker><marker id="SvgjsMarker1242" markerWidth="16" markerHeight="12" refX="16" refY="6" viewBox="0 0 16 12" orient="auto" markerUnits="userSpaceOnUse" stroke-dasharray="0,0"><path id="SvgjsPath1243" d="M0,2 L14,6 L0,11 L0,2" fill="#323232" stroke="#323232" stroke-width="2"></path></marker><marker id="SvgjsMarker1246" markerWidth="16" markerHeight="12" refX="16" refY="6" viewBox="0 0 16 12" orient="auto" markerUnits="userSpaceOnUse" stroke-dasharray="0,0"><path id="SvgjsPath1247" d="M0,2 L14,6 L0,11 L0,2" fill="#323232" stroke="#323232" stroke-width="2"></path></marker><marker id="SvgjsMarker1352" markerWidth="16" markerHeight="12" refX="16" refY="6" viewBox="0 0 16 12" orient="auto" markerUnits="userSpaceOnUse" stroke-dasharray="0,0"><path id="SvgjsPath1353" d="M0,2 L14,6 L0,11 L0,2" fill="#323232" stroke="#323232" stroke-width="2"></path></marker></defs><g id="SvgjsG1008" transform="translate(62.171875,303)"><path id="SvgjsPath1009" d="M 0 0L 120 0L 120 40L 0 40Z" stroke="none" fill="none"></path><g id="SvgjsG1010"><text id="SvgjsText1011" font-family="微软雅黑" text-anchor="middle" font-size="13px" width="120px" fill="#323232" font-weight="400" align="middle" anchor="middle" family="微软雅黑" size="13px" weight="400" font-style="" opacity="1" y="10.05" transform="rotate(0)"><tspan id="SvgjsTspan1012" dy="16" x="60"><tspan id="SvgjsTspan1013" style="text-decoration:;">Y</tspan></tspan></text></g></g><g id="SvgjsG1014" transform="translate(234.0625,112)"><path id="SvgjsPath1015" d="M 0 0L 120 0L 120 40L 0 40Z" stroke="none" fill="none"></path><g id="SvgjsG1016"><text id="SvgjsText1017" font-family="微软雅黑" text-anchor="middle" font-size="13px" width="120px" fill="#323232" font-weight="400" align="middle" anchor="middle" family="微软雅黑" size="13px" weight="400" font-style="" opacity="1" y="10.05" transform="rotate(0)"><tspan id="SvgjsTspan1018" dy="16" x="60"><tspan id="SvgjsTspan1019" style="text-decoration:;">创建</tspan></tspan></text></g></g><g id="SvgjsG1020" transform="translate(378.0625,25)"><path id="SvgjsPath1021" d="M 0 0L 111 0L 111 33L 0 33Z" stroke="rgba(50,50,50,1)" stroke-width="2" fill-opacity="1" fill="#ffffff"></path><g id="SvgjsG1022"><text id="SvgjsText1023" font-family="微软雅黑" text-anchor="middle" font-size="13px" width="91px" fill="#323232" font-weight="400" align="middle" anchor="middle" family="微软雅黑" size="13px" weight="400" font-style="" opacity="1" y="6.55" transform="rotate(0)"><tspan id="SvgjsTspan1024" dy="16" x="55.5"><tspan id="SvgjsTspan1025" style="text-decoration:;">用户登录</tspan></tspan></text></g></g><g id="SvgjsG1026" transform="translate(361.953125,116)"><path id="SvgjsPath1027" d="M 0 34L 71.609375 0L 143.21875 34L 71.609375 68Z" stroke="rgba(50,50,50,1)" stroke-width="2" fill-opacity="1" fill="#ffffff"></path><g id="SvgjsG1028"><text id="SvgjsText1029" font-family="微软雅黑" text-anchor="middle" font-size="13px" width="124px" fill="#323232" font-weight="400" align="middle" anchor="middle" family="微软雅黑" size="13px" weight="400" font-style="" opacity="1" y="24.39" transform="rotate(0)"><tspan id="SvgjsTspan1030" dy="16" x="72"><tspan id="SvgjsTspan1031" style="text-decoration:;">创建/加入/退出群聊</tspan></tspan></text></g></g><g id="SvgjsG1032" transform="translate(148.953125,196)"><path id="SvgjsPath1033" d="M 0 34L 71.609375 0L 143.21875 34L 71.609375 68Z" stroke="rgba(50,50,50,1)" stroke-width="2" fill-opacity="1" fill="#ffffff"></path><g id="SvgjsG1034"><text id="SvgjsText1035" font-family="微软雅黑" text-anchor="middle" font-size="13px" width="124px" fill="#323232" font-weight="400" align="middle" anchor="middle" family="微软雅黑" size="13px" weight="400" font-style="" opacity="1" y="24.39" transform="rotate(0)"><tspan id="SvgjsTspan1036" dy="16" x="72"><tspan id="SvgjsTspan1037" style="text-decoration:;">用户建群数已满？</tspan></tspan></text></g></g><g id="SvgjsG1038" transform="translate(148.953125,303)"><path id="SvgjsPath1039" d="M 0 34L 71.609375 0L 143.21875 34L 71.609375 68Z" stroke="rgba(50,50,50,1)" stroke-width="2" fill-opacity="1" fill="#ffffff"></path><g id="SvgjsG1040"><text id="SvgjsText1041" font-family="微软雅黑" text-anchor="middle" font-size="13px" width="124px" fill="#323232" font-weight="400" align="middle" anchor="middle" family="微软雅黑" size="13px" weight="400" font-style="" opacity="1" y="24.39" transform="rotate(0)"><tspan id="SvgjsTspan1042" dy="16" x="72"><tspan id="SvgjsTspan1043" style="text-decoration:;">群名重复？</tspan></tspan></text></g></g><g id="SvgjsG1044" transform="translate(148.953125,404)"><path id="SvgjsPath1045" d="M 0 34L 71.609375 0L 143.21875 34L 71.609375 68Z" stroke="rgba(50,50,50,1)" stroke-width="2" fill-opacity="1" fill="#ffffff"></path><g id="SvgjsG1046"><text id="SvgjsText1047" font-family="微软雅黑" text-anchor="middle" font-size="13px" width="124px" fill="#323232" font-weight="400" align="middle" anchor="middle" family="微软雅黑" size="13px" weight="400" font-style="" opacity="1" y="24.39" transform="rotate(0)"><tspan id="SvgjsTspan1048" dy="16" x="72"><tspan id="SvgjsTspan1049" style="text-decoration:;">群名合法？</tspan></tspan></text></g></g><g id="SvgjsG1050" transform="translate(165.0625,523.5)"><path id="SvgjsPath1051" d="M 0 0L 111 0L 111 33L 0 33Z" stroke="rgba(50,50,50,1)" stroke-width="2" fill-opacity="1" fill="#ffffff"></path><g id="SvgjsG1052"><text id="SvgjsText1053" font-family="微软雅黑" text-anchor="middle" font-size="13px" width="91px" fill="#323232" font-weight="400" align="middle" anchor="middle" family="微软雅黑" size="13px" weight="400" font-style="" opacity="1" y="-1.45" transform="rotate(0)"><tspan id="SvgjsTspan1054" dy="16" x="55.5"><tspan id="SvgjsTspan1055" style="text-decoration:;">更新用户信息和</tspan></tspan><tspan id="SvgjsTspan1056" dy="16" x="55.5"><tspan id="SvgjsTspan1057" style="text-decoration:;">群聊信息</tspan></tspan></text></g></g><g id="SvgjsG1058" transform="translate(165.0625,595.5)"><path id="SvgjsPath1059" d="M 0 0L 111 0L 111 33L 0 33Z" stroke="rgba(50,50,50,1)" stroke-width="2" fill-opacity="1" fill="#ffffff"></path><g id="SvgjsG1060"><text id="SvgjsText1061" font-family="微软雅黑" text-anchor="middle" font-size="13px" width="91px" fill="#323232" font-weight="400" align="middle" anchor="middle" family="微软雅黑" size="13px" weight="400" font-style="" opacity="1" y="6.55" transform="rotate(0)"><tspan id="SvgjsTspan1062" dy="16" x="55.5"><tspan id="SvgjsTspan1063" style="text-decoration:;">建群成功</tspan></tspan></text></g></g><g id="SvgjsG1064" transform="translate(25,595.5)"><path id="SvgjsPath1065" d="M 0 0L 111 0L 111 33L 0 33Z" stroke="rgba(50,50,50,1)" stroke-width="2" fill-opacity="1" fill="#ffffff"></path><g id="SvgjsG1066"><text id="SvgjsText1067" font-family="微软雅黑" text-anchor="middle" font-size="13px" width="91px" fill="#323232" font-weight="400" align="middle" anchor="middle" family="微软雅黑" size="13px" weight="400" font-style="" opacity="1" y="6.55" transform="rotate(0)"><tspan id="SvgjsTspan1068" dy="16" x="55.5"><tspan id="SvgjsTspan1069" style="text-decoration:;">建群失败</tspan></tspan></text></g></g><g id="SvgjsG1070"><path id="SvgjsPath1071" d="M433.5625 58L433.5625 87L433.5625 87L433.5625 116" stroke="#323232" stroke-width="2" fill="none" marker-end="url(#SvgjsMarker1072)"></path></g><g id="SvgjsG1074"><path id="SvgjsPath1075" d="M220.5625 371L220.5625 387.5L220.5625 387.5L220.5625 404" stroke="#323232" stroke-width="2" fill="none" marker-end="url(#SvgjsMarker1076)"></path></g><g id="SvgjsG1078"><path id="SvgjsPath1079" d="M220.5625 472L220.5625 497.75L220.5625 497.75L220.5625 523.5" stroke="#323232" stroke-width="2" fill="none" marker-end="url(#SvgjsMarker1080)"></path></g><g id="SvgjsG1082"><path id="SvgjsPath1083" d="M220.5625 556.5L220.5625 576L220.5625 576L220.5625 595.5" stroke="#323232" stroke-width="2" fill="none" marker-end="url(#SvgjsMarker1084)"></path></g><g id="SvgjsG1086" transform="translate(654.84375,349)"><path id="SvgjsPath1087" d="M 0 34L 71.609375 0L 143.21875 34L 71.609375 68Z" stroke="rgba(50,50,50,1)" stroke-width="2" fill-opacity="1" fill="#ffffff"></path><g id="SvgjsG1088"><text id="SvgjsText1089" font-family="微软雅黑" text-anchor="middle" font-size="13px" width="124px" fill="#323232" font-weight="400" align="middle" anchor="middle" family="微软雅黑" size="13px" weight="400" font-style="" opacity="1" y="24.39" transform="rotate(0)"><tspan id="SvgjsTspan1090" dy="16" x="72"><tspan id="SvgjsTspan1091" style="text-decoration:;">用户是群主？</tspan></tspan></text></g></g><g id="SvgjsG1092" transform="translate(654.84375,227)"><path id="SvgjsPath1093" d="M 0 34L 71.609375 0L 143.21875 34L 71.609375 68Z" stroke="rgba(50,50,50,1)" stroke-width="2" fill-opacity="1" fill="#ffffff"></path><g id="SvgjsG1094"><text id="SvgjsText1095" font-family="微软雅黑" text-anchor="middle" font-size="13px" width="124px" fill="#323232" font-weight="400" align="middle" anchor="middle" family="微软雅黑" size="13px" weight="400" font-style="" opacity="1" y="24.39" transform="rotate(0)"><tspan id="SvgjsTspan1096" dy="16" x="72"><tspan id="SvgjsTspan1097" style="text-decoration:;">用户在群中？</tspan></tspan></text></g></g><g id="SvgjsG1098" transform="translate(361.953125,436)"><path id="SvgjsPath1099" d="M 0 34L 71.609375 0L 143.21875 34L 71.609375 68Z" stroke="rgba(50,50,50,1)" stroke-width="2" fill-opacity="1" fill="#ffffff"></path><g id="SvgjsG1100"><text id="SvgjsText1101" font-family="微软雅黑" text-anchor="middle" font-size="13px" width="124px" fill="#323232" font-weight="400" align="middle" anchor="middle" family="微软雅黑" size="13px" weight="400" font-style="" opacity="1" y="24.39" transform="rotate(0)"><tspan id="SvgjsTspan1102" dy="16" x="72"><tspan id="SvgjsTspan1103" style="text-decoration:;">群成员已满？</tspan></tspan></text></g></g><g id="SvgjsG1104" transform="translate(361.953125,324)"><path id="SvgjsPath1105" d="M 0 34L 71.609375 0L 143.21875 34L 71.609375 68Z" stroke="rgba(50,50,50,1)" stroke-width="2" fill-opacity="1" fill="#ffffff"></path><g id="SvgjsG1106"><text id="SvgjsText1107" font-family="微软雅黑" text-anchor="middle" font-size="13px" width="124px" fill="#323232" font-weight="400" align="middle" anchor="middle" family="微软雅黑" size="13px" weight="400" font-style="" opacity="1" y="24.39" transform="rotate(0)"><tspan id="SvgjsTspan1108" dy="16" x="72"><tspan id="SvgjsTspan1109" style="text-decoration:;">群名存在？</tspan></tspan></text></g></g><g id="SvgjsG1110" transform="translate(361.953125,223)"><path id="SvgjsPath1111" d="M 0 34L 71.609375 0L 143.21875 34L 71.609375 68Z" stroke="rgba(50,50,50,1)" stroke-width="2" fill-opacity="1" fill="#ffffff"></path><g id="SvgjsG1112"><text id="SvgjsText1113" font-family="微软雅黑" text-anchor="middle" font-size="13px" width="124px" fill="#323232" font-weight="400" align="middle" anchor="middle" family="微软雅黑" size="13px" weight="400" font-style="" opacity="1" y="24.39" transform="rotate(0)"><tspan id="SvgjsTspan1114" dy="16" x="72"><tspan id="SvgjsTspan1115" style="text-decoration:;">用户加群数已满？</tspan></tspan></text></g></g><g id="SvgjsG1116" transform="translate(670.953125,462)"><path id="SvgjsPath1117" d="M 0 0L 111 0L 111 33L 0 33Z" stroke="rgba(50,50,50,1)" stroke-width="2" fill-opacity="1" fill="#ffffff"></path><g id="SvgjsG1118"><text id="SvgjsText1119" font-family="微软雅黑" text-anchor="middle" font-size="13px" width="91px" fill="#323232" font-weight="400" align="middle" anchor="middle" family="微软雅黑" size="13px" weight="400" font-style="" opacity="1" y="6.55" transform="rotate(0)"><tspan id="SvgjsTspan1120" dy="16" x="55.5"><tspan id="SvgjsTspan1121" style="text-decoration:;">全体群员退群</tspan></tspan></text></g></g><g id="SvgjsG1122" transform="translate(670.953125,564)"><path id="SvgjsPath1123" d="M 0 0L 111 0L 111 33L 0 33Z" stroke="rgba(50,50,50,1)" stroke-width="2" fill-opacity="1" fill="#ffffff"></path><g id="SvgjsG1124"><text id="SvgjsText1125" font-family="微软雅黑" text-anchor="middle" font-size="13px" width="91px" fill="#323232" font-weight="400" align="middle" anchor="middle" family="微软雅黑" size="13px" weight="400" font-style="" opacity="1" y="-1.45" transform="rotate(0)"><tspan id="SvgjsTspan1126" dy="16" x="55.5"><tspan id="SvgjsTspan1127" style="text-decoration:;">更新用户信息和</tspan></tspan><tspan id="SvgjsTspan1128" dy="16" x="55.5"><tspan id="SvgjsTspan1129" style="text-decoration:;">群聊信息</tspan></tspan></text></g></g><g id="SvgjsG1130" transform="translate(378.0625,555)"><path id="SvgjsPath1131" d="M 0 0L 111 0L 111 33L 0 33Z" stroke="rgba(50,50,50,1)" stroke-width="2" fill-opacity="1" fill="#ffffff"></path><g id="SvgjsG1132"><text id="SvgjsText1133" font-family="微软雅黑" text-anchor="middle" font-size="13px" width="91px" fill="#323232" font-weight="400" align="middle" anchor="middle" family="微软雅黑" size="13px" weight="400" font-style="" opacity="1" y="-1.45" transform="rotate(0)"><tspan id="SvgjsTspan1134" dy="16" x="55.5"><tspan id="SvgjsTspan1135" style="text-decoration:;">更新用户信息和</tspan></tspan><tspan id="SvgjsTspan1136" dy="16" x="55.5"><tspan id="SvgjsTspan1137" style="text-decoration:;">群聊信息</tspan></tspan></text></g></g><g id="SvgjsG1138" transform="translate(378.0625,632.5)"><path id="SvgjsPath1139" d="M 0 0L 111 0L 111 33L 0 33Z" stroke="rgba(50,50,50,1)" stroke-width="2" fill-opacity="1" fill="#ffffff"></path><g id="SvgjsG1140"><text id="SvgjsText1141" font-family="微软雅黑" text-anchor="middle" font-size="13px" width="91px" fill="#323232" font-weight="400" align="middle" anchor="middle" family="微软雅黑" size="13px" weight="400" font-style="" opacity="1" y="6.55" transform="rotate(0)"><tspan id="SvgjsTspan1142" dy="16" x="55.5"><tspan id="SvgjsTspan1143" style="text-decoration:;">加群成功</tspan></tspan></text></g></g><g id="SvgjsG1144"><path id="SvgjsPath1145" d="M433.5625 184L433.5625 203.5L433.5625 203.5L433.5625 223" stroke="#323232" stroke-width="2" fill="none" marker-end="url(#SvgjsMarker1146)"></path></g><g id="SvgjsG1148"><path id="SvgjsPath1149" d="M433.5625 291L433.5625 307.5L433.5625 307.5L433.5625 324" stroke="#323232" stroke-width="2" fill="none" marker-end="url(#SvgjsMarker1150)"></path></g><g id="SvgjsG1152"><path id="SvgjsPath1153" d="M433.5625 392L433.5625 414L433.5625 414L433.5625 436" stroke="#323232" stroke-width="2" fill="none" marker-end="url(#SvgjsMarker1154)"></path></g><g id="SvgjsG1156"><path id="SvgjsPath1157" d="M433.5625 504L433.5625 529.5L433.5625 529.5L433.5625 555" stroke="#323232" stroke-width="2" fill="none" marker-end="url(#SvgjsMarker1158)"></path></g><g id="SvgjsG1160"><path id="SvgjsPath1161" d="M433.5625 588L433.5625 610.25L433.5625 610.25L433.5625 632.5" stroke="#323232" stroke-width="2" fill="none" marker-end="url(#SvgjsMarker1162)"></path></g><g id="SvgjsG1164" transform="translate(539,632.5)"><path id="SvgjsPath1165" d="M 0 0L 111 0L 111 33L 0 33Z" stroke="rgba(50,50,50,1)" stroke-width="2" fill-opacity="1" fill="#ffffff"></path><g id="SvgjsG1166"><text id="SvgjsText1167" font-family="微软雅黑" text-anchor="middle" font-size="13px" width="91px" fill="#323232" font-weight="400" align="middle" anchor="middle" family="微软雅黑" size="13px" weight="400" font-style="" opacity="1" y="6.55" transform="rotate(0)"><tspan id="SvgjsTspan1168" dy="16" x="55.5"><tspan id="SvgjsTspan1169" style="text-decoration:;">加群失败</tspan></tspan></text></g></g><g id="SvgjsG1170" transform="translate(670.953125,632.5)"><path id="SvgjsPath1171" d="M 0 0L 111 0L 111 33L 0 33Z" stroke="rgba(50,50,50,1)" stroke-width="2" fill-opacity="1" fill="#ffffff"></path><g id="SvgjsG1172"><text id="SvgjsText1173" font-family="微软雅黑" text-anchor="middle" font-size="13px" width="91px" fill="#323232" font-weight="400" align="middle" anchor="middle" family="微软雅黑" size="13px" weight="400" font-style="" opacity="1" y="6.55" transform="rotate(0)"><tspan id="SvgjsTspan1174" dy="16" x="55.5"><tspan id="SvgjsTspan1175" style="text-decoration:;">退群成功</tspan></tspan></text></g></g><g id="SvgjsG1176"><path id="SvgjsPath1177" d="M148.953125 438L80.5 438L80.5 595.5" stroke="#323232" stroke-width="2" fill="none" marker-end="url(#SvgjsMarker1178)"></path></g><g id="SvgjsG1180"><path id="SvgjsPath1181" d="M148.953125 337L80.5 337L80.5 595.5" stroke="#323232" stroke-width="2" fill="none" marker-end="url(#SvgjsMarker1182)"></path></g><g id="SvgjsG1184"><path id="SvgjsPath1185" d="M148.953125 230L80.5 230L80.5 595.5" stroke="#323232" stroke-width="2" fill="none" marker-end="url(#SvgjsMarker1186)"></path></g><g id="SvgjsG1188"><path id="SvgjsPath1189" d="M505.171875 470L594.5 470L594.5 632.5" stroke="#323232" stroke-width="2" fill="none" marker-end="url(#SvgjsMarker1190)"></path></g><g id="SvgjsG1192"><path id="SvgjsPath1193" d="M505.171875 358L594.5 358L594.5 632.5" stroke="#323232" stroke-width="2" fill="none" marker-end="url(#SvgjsMarker1194)"></path></g><g id="SvgjsG1196"><path id="SvgjsPath1197" d="M505.171875 257L594.5 257L594.5 632.5" stroke="#323232" stroke-width="2" fill="none" marker-end="url(#SvgjsMarker1198)"></path></g><g id="SvgjsG1200"><path id="SvgjsPath1201" d="M361.953125 150L220.5625 150L220.5625 196" stroke="#323232" stroke-width="2" fill="none" marker-end="url(#SvgjsMarker1202)"></path></g><g id="SvgjsG1204" transform="translate(829.34375,462)"><path id="SvgjsPath1205" d="M 0 0L 111 0L 111 33L 0 33Z" stroke="rgba(50,50,50,1)" stroke-width="2" fill-opacity="1" fill="#ffffff"></path><g id="SvgjsG1206"><text id="SvgjsText1207" font-family="微软雅黑" text-anchor="middle" font-size="13px" width="91px" fill="#323232" font-weight="400" align="middle" anchor="middle" family="微软雅黑" size="13px" weight="400" font-style="" opacity="1" y="6.55" transform="rotate(0)"><tspan id="SvgjsTspan1208" dy="16" x="55.5"><tspan id="SvgjsTspan1209" style="text-decoration:;">用户自己退群</tspan></tspan></text></g></g><g id="SvgjsG1210" transform="translate(837.765625,244.5)"><path id="SvgjsPath1211" d="M 0 0L 94.15625 0L 94.15625 33L 0 33Z" stroke="rgba(50,50,50,1)" stroke-width="2" fill-opacity="1" fill="#ffffff"></path><g id="SvgjsG1212"><text id="SvgjsText1213" font-family="微软雅黑" text-anchor="middle" font-size="13px" width="75px" fill="#323232" font-weight="400" align="middle" anchor="middle" family="微软雅黑" size="13px" weight="400" font-style="" opacity="1" y="6.55" transform="rotate(0)"><tspan id="SvgjsTspan1214" dy="16" x="47.5"><tspan id="SvgjsTspan1215" style="text-decoration:;">退群失败</tspan></tspan></text></g></g><g id="SvgjsG1216"><path id="SvgjsPath1217" d="M505.171875 150L726.453125 150L726.453125 227" stroke="#323232" stroke-width="2" fill="none" marker-end="url(#SvgjsMarker1218)"></path></g><g id="SvgjsG1220"><path id="SvgjsPath1221" d="M726.453125 295L726.453125 322L726.453125 322L726.453125 349" stroke="#323232" stroke-width="2" fill="none" marker-end="url(#SvgjsMarker1222)"></path></g><g id="SvgjsG1224"><path id="SvgjsPath1225" d="M798.0625 261L817.9140625 261L817.9140625 261L837.765625 261" stroke="#323232" stroke-width="2" fill="none" marker-end="url(#SvgjsMarker1226)"></path></g><g id="SvgjsG1228"><path id="SvgjsPath1229" d="M726.453125 417L726.453125 439.5L726.453125 439.5L726.453125 462" stroke="#323232" stroke-width="2" fill="none" marker-end="url(#SvgjsMarker1230)"></path></g><g id="SvgjsG1232"><path id="SvgjsPath1233" d="M798.0625 383L884.84375 383L884.84375 462" stroke="#323232" stroke-width="2" fill="none" marker-end="url(#SvgjsMarker1234)"></path></g><g id="SvgjsG1236"><path id="SvgjsPath1237" d="M726.453125 495L726.453125 529.5L726.453125 529.5L726.453125 564" stroke="#323232" stroke-width="2" fill="none" marker-end="url(#SvgjsMarker1238)"></path></g><g id="SvgjsG1240"><path id="SvgjsPath1241" d="M884.84375 495L884.84375 529.5L726.453125 529.5L726.453125 564" stroke="#323232" stroke-width="2" fill="none" marker-end="url(#SvgjsMarker1242)"></path></g><g id="SvgjsG1244"><path id="SvgjsPath1245" d="M726.453125 597L726.453125 614.75L726.453125 614.75L726.453125 632.5" stroke="#323232" stroke-width="2" fill="none" marker-end="url(#SvgjsMarker1246)"></path></g><g id="SvgjsG1248" transform="translate(479.0625,116)"><path id="SvgjsPath1249" d="M 0 0L 120 0L 120 40L 0 40Z" stroke="none" fill="none"></path><g id="SvgjsG1250"><text id="SvgjsText1251" font-family="微软雅黑" text-anchor="middle" font-size="13px" width="120px" fill="#323232" font-weight="400" align="middle" anchor="middle" family="微软雅黑" size="13px" weight="400" font-style="" opacity="1" y="10.05" transform="rotate(0)"><tspan id="SvgjsTspan1252" dy="16" x="60"><tspan id="SvgjsTspan1253" style="text-decoration:;">退出</tspan></tspan></text></g></g><g id="SvgjsG1254" transform="translate(392.0625,176)"><path id="SvgjsPath1255" d="M 0 0L 120 0L 120 40L 0 40Z" stroke="none" fill="none"></path><g id="SvgjsG1256"><text id="SvgjsText1257" font-family="微软雅黑" text-anchor="middle" font-size="13px" width="120px" fill="#323232" font-weight="400" align="middle" anchor="middle" family="微软雅黑" size="13px" weight="400" font-style="" opacity="1" y="10.05" transform="rotate(0)"><tspan id="SvgjsTspan1258" dy="16" x="60"><tspan id="SvgjsTspan1259" style="text-decoration:;">加入</tspan></tspan></text></g></g><g id="SvgjsG1260" transform="translate(749.0625,227)"><path id="SvgjsPath1261" d="M 0 0L 120 0L 120 40L 0 40Z" stroke="none" fill="none"></path><g id="SvgjsG1262"><text id="SvgjsText1263" font-family="微软雅黑" text-anchor="middle" font-size="13px" width="120px" fill="#323232" font-weight="400" align="middle" anchor="middle" family="微软雅黑" size="13px" weight="400" font-style="" opacity="1" y="10.05" transform="rotate(0)"><tspan id="SvgjsTspan1264" dy="16" x="60"><tspan id="SvgjsTspan1265" style="text-decoration:;">N</tspan></tspan></text></g></g><g id="SvgjsG1266" transform="translate(172.171875,364)"><path id="SvgjsPath1267" d="M 0 0L 120 0L 120 40L 0 40Z" stroke="none" fill="none"></path><g id="SvgjsG1268"><text id="SvgjsText1269" font-family="微软雅黑" text-anchor="middle" font-size="13px" width="120px" fill="#323232" font-weight="400" align="middle" anchor="middle" family="微软雅黑" size="13px" weight="400" font-style="" opacity="1" y="10.05" transform="rotate(0)"><tspan id="SvgjsTspan1270" dy="16" x="60"><tspan id="SvgjsTspan1271" style="text-decoration:;">N</tspan></tspan></text></g></g><g id="SvgjsG1272" transform="translate(172.171875,257.5)"><path id="SvgjsPath1273" d="M 0 0L 120 0L 120 40L 0 40Z" stroke="none" fill="none"></path><g id="SvgjsG1274"><text id="SvgjsText1275" font-family="微软雅黑" text-anchor="middle" font-size="13px" width="120px" fill="#323232" font-weight="400" align="middle" anchor="middle" family="微软雅黑" size="13px" weight="400" font-style="" opacity="1" y="10.05" transform="rotate(0)"><tspan id="SvgjsTspan1276" dy="16" x="60"><tspan id="SvgjsTspan1277" style="text-decoration:;">N</tspan></tspan></text></g></g><g id="SvgjsG1278" transform="translate(62.171875,196)"><path id="SvgjsPath1279" d="M 0 0L 120 0L 120 40L 0 40Z" stroke="none" fill="none"></path><g id="SvgjsG1280"><text id="SvgjsText1281" font-family="微软雅黑" text-anchor="middle" font-size="13px" width="120px" fill="#323232" font-weight="400" align="middle" anchor="middle" family="微软雅黑" size="13px" weight="400" font-style="" opacity="1" y="10.05" transform="rotate(0)"><tspan id="SvgjsTspan1282" dy="16" x="60"><tspan id="SvgjsTspan1283" style="text-decoration:;">Y</tspan></tspan></text></g></g><g id="SvgjsG1284" transform="translate(467.0625,436)"><path id="SvgjsPath1285" d="M 0 0L 120 0L 120 40L 0 40Z" stroke="none" fill="none"></path><g id="SvgjsG1286"><text id="SvgjsText1287" font-family="微软雅黑" text-anchor="middle" font-size="13px" width="120px" fill="#323232" font-weight="400" align="middle" anchor="middle" family="微软雅黑" size="13px" weight="400" font-style="" opacity="1" y="10.05" transform="rotate(0)"><tspan id="SvgjsTspan1288" dy="16" x="60"><tspan id="SvgjsTspan1289" style="text-decoration:;">Y</tspan></tspan></text></g></g><g id="SvgjsG1290" transform="translate(467.0625,223)"><path id="SvgjsPath1291" d="M 0 0L 120 0L 120 40L 0 40Z" stroke="none" fill="none"></path><g id="SvgjsG1292"><text id="SvgjsText1293" font-family="微软雅黑" text-anchor="middle" font-size="13px" width="120px" fill="#323232" font-weight="400" align="middle" anchor="middle" family="微软雅黑" size="13px" weight="400" font-style="" opacity="1" y="10.05" transform="rotate(0)"><tspan id="SvgjsTspan1294" dy="16" x="60"><tspan id="SvgjsTspan1295" style="text-decoration:;">Y</tspan></tspan></text></g></g><g id="SvgjsG1296" transform="translate(385.171875,387)"><path id="SvgjsPath1297" d="M 0 0L 120 0L 120 40L 0 40Z" stroke="none" fill="none"></path><g id="SvgjsG1298"><text id="SvgjsText1299" font-family="微软雅黑" text-anchor="middle" font-size="13px" width="120px" fill="#323232" font-weight="400" align="middle" anchor="middle" family="微软雅黑" size="13px" weight="400" font-style="" opacity="1" y="10.05" transform="rotate(0)"><tspan id="SvgjsTspan1300" dy="16" x="60"><tspan id="SvgjsTspan1301" style="text-decoration:;">Y</tspan></tspan></text></g></g><g id="SvgjsG1302" transform="translate(169.0625,476)"><path id="SvgjsPath1303" d="M 0 0L 120 0L 120 40L 0 40Z" stroke="none" fill="none"></path><g id="SvgjsG1304"><text id="SvgjsText1305" font-family="微软雅黑" text-anchor="middle" font-size="13px" width="120px" fill="#323232" font-weight="400" align="middle" anchor="middle" family="微软雅黑" size="13px" weight="400" font-style="" opacity="1" y="10.05" transform="rotate(0)"><tspan id="SvgjsTspan1306" dy="16" x="60"><tspan id="SvgjsTspan1307" style="text-decoration:;">Y</tspan></tspan></text></g></g><g id="SvgjsG1308" transform="translate(62.171875,404)"><path id="SvgjsPath1309" d="M 0 0L 120 0L 120 40L 0 40Z" stroke="none" fill="none"></path><g id="SvgjsG1310"><text id="SvgjsText1311" font-family="微软雅黑" text-anchor="middle" font-size="13px" width="120px" fill="#323232" font-weight="400" align="middle" anchor="middle" family="微软雅黑" size="13px" weight="400" font-style="" opacity="1" y="10.05" transform="rotate(0)"><tspan id="SvgjsTspan1312" dy="16" x="60"><tspan id="SvgjsTspan1313" style="text-decoration:;">N</tspan></tspan></text></g></g><g id="SvgjsG1314" transform="translate(385.171875,284)"><path id="SvgjsPath1315" d="M 0 0L 120 0L 120 40L 0 40Z" stroke="none" fill="none"></path><g id="SvgjsG1316"><text id="SvgjsText1317" font-family="微软雅黑" text-anchor="middle" font-size="13px" width="120px" fill="#323232" font-weight="400" align="middle" anchor="middle" family="微软雅黑" size="13px" weight="400" font-style="" opacity="1" y="10.05" transform="rotate(0)"><tspan id="SvgjsTspan1318" dy="16" x="60"><tspan id="SvgjsTspan1319" style="text-decoration:;">N</tspan></tspan></text></g></g><g id="SvgjsG1320" transform="translate(467.0625,324)"><path id="SvgjsPath1321" d="M 0 0L 120 0L 120 40L 0 40Z" stroke="none" fill="none"></path><g id="SvgjsG1322"><text id="SvgjsText1323" font-family="微软雅黑" text-anchor="middle" font-size="13px" width="120px" fill="#323232" font-weight="400" align="middle" anchor="middle" family="微软雅黑" size="13px" weight="400" font-style="" opacity="1" y="10.05" transform="rotate(0)"><tspan id="SvgjsTspan1324" dy="16" x="60"><tspan id="SvgjsTspan1325" style="text-decoration:;">N</tspan></tspan></text></g></g><g id="SvgjsG1326" transform="translate(385.171875,508)"><path id="SvgjsPath1327" d="M 0 0L 120 0L 120 40L 0 40Z" stroke="none" fill="none"></path><g id="SvgjsG1328"><text id="SvgjsText1329" font-family="微软雅黑" text-anchor="middle" font-size="13px" width="120px" fill="#323232" font-weight="400" align="middle" anchor="middle" family="微软雅黑" size="13px" weight="400" font-style="" opacity="1" y="10.05" transform="rotate(0)"><tspan id="SvgjsTspan1330" dy="16" x="60"><tspan id="SvgjsTspan1331" style="text-decoration:;">N</tspan></tspan></text></g></g><g id="SvgjsG1332" transform="translate(680.5,298)"><path id="SvgjsPath1333" d="M 0 0L 120 0L 120 40L 0 40Z" stroke="none" fill="none"></path><g id="SvgjsG1334"><text id="SvgjsText1335" font-family="微软雅黑" text-anchor="middle" font-size="13px" width="120px" fill="#323232" font-weight="400" align="middle" anchor="middle" family="微软雅黑" size="13px" weight="400" font-style="" opacity="1" y="10.05" transform="rotate(0)"><tspan id="SvgjsTspan1336" dy="16" x="60"><tspan id="SvgjsTspan1337" style="text-decoration:;">Y</tspan></tspan></text></g></g><g id="SvgjsG1338" transform="translate(680.5,414)"><path id="SvgjsPath1339" d="M 0 0L 120 0L 120 40L 0 40Z" stroke="none" fill="none"></path><g id="SvgjsG1340"><text id="SvgjsText1341" font-family="微软雅黑" text-anchor="middle" font-size="13px" width="120px" fill="#323232" font-weight="400" align="middle" anchor="middle" family="微软雅黑" size="13px" weight="400" font-style="" opacity="1" y="10.05" transform="rotate(0)"><tspan id="SvgjsTspan1342" dy="16" x="60"><tspan id="SvgjsTspan1343" style="text-decoration:;">Y</tspan></tspan></text></g></g><g id="SvgjsG1344" transform="translate(749.0625,347)"><path id="SvgjsPath1345" d="M 0 0L 120 0L 120 40L 0 40Z" stroke="none" fill="none"></path><g id="SvgjsG1346"><text id="SvgjsText1347" font-family="微软雅黑" text-anchor="middle" font-size="13px" width="120px" fill="#323232" font-weight="400" align="middle" anchor="middle" family="微软雅黑" size="13px" weight="400" font-style="" opacity="1" y="10.05" transform="rotate(0)"><tspan id="SvgjsTspan1348" dy="16" x="60"><tspan id="SvgjsTspan1349" style="text-decoration:;">N</tspan></tspan></text></g></g><g id="SvgjsG1350"><path id="SvgjsPath1351" d="M220.5625 264L220.5625 283.5L220.5625 283.5L220.5625 303" stroke="#323232" stroke-width="2" fill="none" marker-end="url(#SvgjsMarker1352)"></path></g></svg>